<mxfile host="app.diagrams.net" modified="2024-05-13T15:05:17.152Z" agent="Mozilla/5.0 (Windows NT 10.0; Win64; x64) AppleWebKit/537.36 (KHTML, like Gecko) Chrome/124.0.0.0 Safari/537.36" etag="_pBs7wEsBJ1Lzz7oSsab" version="24.4.0" type="device">
  <diagram name="PÃ¡gina-1" id="gBKFRzXJJN-2bDcdrxt6">
    <mxGraphModel dx="2507" dy="827" grid="1" gridSize="10" guides="1" tooltips="1" connect="1" arrows="1" fold="1" page="1" pageScale="1" pageWidth="827" pageHeight="1169" math="0" shadow="0">
      <root>
        <mxCell id="0" />
        <mxCell id="1" parent="0" />
        <mxCell id="deXuY3BzBvGcL0YWFa3F-7" style="edgeStyle=orthogonalEdgeStyle;rounded=0;orthogonalLoop=1;jettySize=auto;html=1;entryX=0;entryY=0.5;entryDx=0;entryDy=0;" edge="1" parent="1" source="deXuY3BzBvGcL0YWFa3F-2" target="deXuY3BzBvGcL0YWFa3F-6">
          <mxGeometry relative="1" as="geometry" />
        </mxCell>
        <mxCell id="deXuY3BzBvGcL0YWFa3F-2" value="" style="shape=image;html=1;verticalAlign=top;verticalLabelPosition=bottom;labelBackgroundColor=#ffffff;imageAspect=0;aspect=fixed;image=https://cdn4.iconfinder.com/data/icons/file-extension-names-vol-8/512/24-128.png" vertex="1" parent="1">
          <mxGeometry x="-785" y="107.5" width="70" height="70" as="geometry" />
        </mxCell>
        <mxCell id="deXuY3BzBvGcL0YWFa3F-6" value="" style="shape=image;verticalLabelPosition=bottom;labelBackgroundColor=default;verticalAlign=top;aspect=fixed;imageAspect=0;image=data:image/png,iVBORw0KGgoAAAANSUhEUgAAAOEAAADhCAYAAAA+s9J6AAAAAXNSR0IArs4c6QAAAARnQU1BAACxjwv8YQUAAAAJcEhZcwAADsMAAA7DAcdvqGQAAA7ZSURBVHhe7dwhryTV1ofx+xVwJEgcIUEiSNAYPgB4FAaJxJIg8TgMCRKDQWDRoEj4AAgSEhJM3/cZZucu1vuvruo+fdacc+ZZyS/MrK6urq7aa+9du3r4z//FSdILFZOS5sSkpDkxKWlOTEqaE5OS5sSkpDkxKWlOTEqaE5OS5sSkpDkxKWlOTEqaE5OS5sSkpDkxKWlOTEqaE5OS5sSkpDkxKWlOTEqaE5OS5sSkpDkxKWlOTEqaE5OS5sSkpDkxKWlOTEqaE5OS5sSkpDkxKWlOTEqaE5OS5sSkpDkxKWlOTEqaE5OS5sSkpDkxKWlOTEqaE5OS5sSkpDkxKWlOTEqaE5OS5sSkpDkxKWlOTEqaE5OS5sSkpDkxKWlOTEqaE5OS5sSkpDkxKWlOTEqaE5OS5sSkpDkxKWlOTEqaE5OS5sSkpDkxKWlOTEqaE5OS5sSkpDkxKWlOTEqaE5OS5sSkpDkxKWlOTEqaE5OS5sSkpDkxKWlOTEqaE5OS5sSkpDkxKWlOTEqaE5OS5sSkpDkxKWlOTEqaE5OS5sSkpDkxKWlOTEqaE5MvzBtvvHH68MMPn3nvvffiNtITE5Oj3n///dN33313+uOPP049/v7779PPP/98+uyzz+J7pScgJke89dZbp59++ul5ue3Hn3/+efrkk0/ivqRHLCbv3UcffXT666+/npfX/+L3338//frrr8/89ttvz7P/DkbNtE/pkYrJe0UB9vjxxx9PH3zwwenVV1/917Zvv/326csvv/x/Bcv2X3311en7779/9udvv/329MUXX5zefffdf71fegRi8t68/vrrz8von2CKyT1h2rY7OnVlBP3000/jPqQHKCbvDYssK5h6UpRpu4ptGOkuDYr2zTffjPuUHpCYvBc8dqjB9DNtVzEVZbTsQTEzHWWh5uOPP342FWVaympqDVZcnaLqgYvJe1Gnk3uLKxRsWphhH+eK6rXXXjt9/fXXz7f+JyjitK30QMTkzTBS/fLLL8/L4X+x9SD+nXfeifd+FCSFmd6TMMrWUZGRM20nPQAxeWesatb7vxpMEfv2rIr2EYxgFGOq2bc/oq/C3nqxhlGXRSU+Z02L6SjoSNL20oaYvBMaZnoGuKKPSjy0Z5GmB4sx/ZFFdaSovvnmm+d7Oz179pi2uRS/3uE7pF/4EIzAfB+O3/vR22KGw6xoPUtez5MvXYBjraHv5wjegx9++CHu90oxeTVGgb44wv0fo8QKFlDqez7//PPnr/wTNPBzjZciWEXOSHnuJ22MVvV47vJ7VEa8rcI7FzzLTPvT5WhLKVikS9tvuWa1vQaFmPZ7pZi8Gge3gsZPwyVPD7Ziqwhp4BRrfa1avWAKeqmt54183go+K22zJ02VLwm+G1P0tG8d88orr8QZE0E+vWfLXYuQ9pb2e6WYvApDfI26kFIfT/Qi5J6P2Briaby1kBgFKYo0KjHq8C8x6vvrcV3zkzd62a3g4rOQxLFzjGkRagXHe+S5qLI6m0px5JHXstoP169K0bfj71zztN8rxeRValHQ8Otr50bCVYQ9D05WnU5SRKsh0zOmEYrt6+czXV1x6cmrx12DEXmN8h33uFsj540v3kuFjq5Gn5py/5/el9B2WG+oyPdCpMNnENja/kZi8mK1l6IY++uXFiGLLvUhPSdj6z6RkY/39uCEUii1CFOhn5Omv0cLaavnPjfl1rYatA0KoS4Acr3T+y6RirDPrO5BTF6s9kqMAv31I0VIT8fCSZ3S1dGVE3TunzJRcMzVe9QTe0lvWafQK7j49Ipp+6RP0Ylrn1nSGDiPfE/+e9d7TGYU3EfzPcGfWchK216KAqn7vus/0K4dKbEWu/pjsK3ZyVGPugjryeCk99ePFGEtOKaUa8WLC1BPDiPRuYvK4ksdRWtc8u8R0817n2bvoWDr91rRt6PxMOrWpfC10MS54zv370QD4bxf+vyTkTjtj+BYeW2vMVME63j57yoKipgOuTdmghzXuu/riF5sazbRV9bvuhL9qIuwHnzqoY8U4QpGxPTF+30WRdK3WWj8qYhSB7ElTUWvuRegYfToU9I0daUI+7nZiqNT5N6Yz8XWQhn6AhR/55xvdX41jh7rwojdY73G/XcNOu/63ks96iKsDfbaIuQErN5/CxekNiRO+rnHDuyvNgz+fGQ6mUYw3pu23dN7a6I/10pFeG5VNgXnpe6z6w2M4PzxvcCfe2ztsxczf6e4jsa5DrTrU/refvotyF1+GfWoi7BelDSVYQRace6esOa3rPuD2mjoBLZGOXrLuu2RxxTpRwd8Rtp2D42iR2+EvQj7Z3N+mQnQIDl/tWOpsTXd4z09uD+ui138Oc0e0oPwXoQc7zpmGi6FweiYpuIruC59v8lekfUivXSkrR51Ee4tzBwpwp7fskYWGgwFyYlawT7ST5i4F6yxtwBBg+yFQKNK2+5Jo9xeEa7gGHitbguOPxVWGq2ZDfRIhbWkEbhv04twBYVdn4UyfU+LU8S5Y1i496/B+ehFwd97XLvA9KiLkNFvBQfeX6fXq8XCfdI6UXcpwpXrPXia1taGs7fA8lCKcG8hKU0x+3v6ueE99fWkXiuiT/lTEZ5bFEnPTY9c7/6+rVGu379vzQj2POoiRP0CqZejh+wPXCmGWxQh6o+102hcp4V7BXXLIuyjMHGkCJmG1W2SvnRP9HPfp3NHznO/Tv14UxGeu59nnaCfzyPfrxcF3zdt10fvI/tOHn0RrmIiOOFb92jkadArVq976T3hpUVIYa3gXqW/Xj2EIkzfoUsrh7XImA72+7L+2Qnb1KDo6uu9CPmMvSlgH1337rHrYh7B9dh6NtqnrcQ1zyYffRGi9rqctHPPmxiZ6oXhBOz9WzxWLdcq3KVFSCNZDZLPrfcu3UOYjvYpYML56FGnbDSg3vi5RpwrjiHhtT569u/ei5Brt7fq3BeT9oqw/yxt7/z3KemRe87uSRRh6pnr/V/S5/2c/LR9v8GnwdTX94qwPnbYK8Jbro5eOxLeqgj797gm9kbC+yjCHnvno09Jr7leT6IIabwpaAjnFkOYZjCNWsGXX9vTiOvJWYV0aRHW+xL20V+vasGuSCuPR6x72Bq9l37oRdjvse67CNP5oH3QQdOp89/15/X3NUOqsffcuXsSRVgXCvpJJ/iSnOD0Xqyfb62oJ4X9MYVdjfrSIqwX9siNez2OFXsNLaGB9OgrmJNFyPeqDXgP9+q907jvIqwd8l2C75n2v+VJFGFdnKFIuLnuX4ygoWzdZKMXAAW2Xru2COuFPXK/kIrnmqXv9P17g01FeOQYmbb3qEXIlJuGVKOey2vdZxGymHSL0ZtgP+kztjy5IqyFQD6NjBRS/T0m29ULQOH0h+/XFGF/YH2uA1jqs88Ve9PYrp6PFf3+CqkI03Zd+jVO/+69Q+Oc1tevcZ9FuK7v0dgr2HMzr+5JFGE9gf1i02tTOD1o2Nz/1RU5LtDWyuo1jyjqyb2kEfYGTBx9P7OA1ED6z66QipDYesyz9FVMou+f463BuaivJxTU1jM53GcR9n2zHavVPHLYw5pEH/kvud5Pogjr6LF1kjlZ6SaaoNGeuxdiBFsX6UgRMsrWhsr+L/k/c6XRkOAYzt3095XcFbwvbb9VhDRcGmB6D/drPfh+vRjS6uzeVHedY65hGkl6odyqCNPCXu9Q9/TbiHROtqQiTNvdWEzeSe39Kbi0Dbi49Uvv3UT3UXSvCBkR+oXvCyJH1P324PgpBo6F49/qXAgu6NY0eKsIV9CbU9h0UHxWX7ldsVVc9ccRKzje+iNq7h/5jH7O+HvdF+6rCFPndekKZ/2d8oo+qtM+uB4c07J1Tus24H1bnemVYvJO6k+e6iLBFk7QVm8PGh5fvEfvoXuR9jg3vdqTFmkuCS7eXofUo08j9+Lcii+jP8eQgk4znV+C11IR3FcRkquRtjmif1Yvmr22shfXHteGmLwTGluNaxs/PVq/KASFnRrGVqOlgXB/1re/FN9jq7GeC453774iFSEj+da0tgeNrC5wJUz10vncinPnrY+sjCJ7RdjPXW/Ivd0Ql05Flz5VpzPh+6/Xn3wRoo8cl0wDmRalgqJR9NGvqtNggu2veaRwDg2dwjjSmJkRHC3+VITr3pj70rQAQ3Acl3Zy7HdrfwTnje94rqjoWCgqRhxwHHtFyDZsS8Hy3z461Sni2ubazpNzxr7YD2gbda2BaTt5vuuleN+RGd4FYvImekOlMM/9VIyLyIXowcmkUaT3LDTEFZyogRWtZxit+WwuMBi9jv5j1epcEVY0Lj6P/+41+iOYUXDM7JPvcot96mIxeRMUXC9EeiRGudWQVqNi1KDn60HhHikoeqcVewX7EB0tQj1JMXkz9KyXLjAQTFWOTkWYGqygGB9jb24RvtRi8uZoZH1U3Aq2S/voKLa+SnfNI4iHwCJ8qcXkveFRBNNFppkUEPhzX81iasp26cE6z9p4rS/EHPmt5UNlEb7UYvKFoIh6UGiMjKtgt0bTx1yASL9qsQhfGjH5wjAi1EWWvWAllMWdtK/HhFVK7p1ZoAJ/fgrfS4fE5AvHimn6qRXB6Mio2H+oLD1SMfmgsErKdI1R8tLfEUqPQExKmhOTkubEpKQ5MSlpTkxKmhOTkubEpKQ5MSlpTkxKmhOTkubEpKQ5MSlpTkxKmhOTkubEpKQ5MSlpTkxKmhOTkubEpKQ5MSlpTkxKmhOTkubEpKQ5MSlpTkxKmhOTkubEpKQ5MSlpTkxKmhOTkubEpKQ5MSlpTkxKmhOTkubEpKQ5MSlpTkxKmhOTkubEpKQ5MSlpTkxKmhOTkubEpKQ5MSlpTkxKmhOTkubEpKQ5MSlpTkxKmhOTkubEpKQ5MSlpTkxKmhOTkubEpKQ5MSlpTkxKmhOTkubEpKQ5MSlpTkxKmhOTkubEpKQ5MSlpTkxKmhOTkubEpKQ5MSlpTkxKmhOTkubEpKQ5MSlpTkxKmhOTkubEpKQ5MSlpTkxKmhOTkubEpKQ5MSlpTkxKmhOTkubEpKQ5MSlpTkxKmhOTkubEpKQ5MSlpTkxKGvGf038BCWLDGgFJz8cAAAAASUVORK5CYII=;" vertex="1" parent="1">
          <mxGeometry x="-605" y="90" width="105" height="105" as="geometry" />
        </mxCell>
        <mxCell id="deXuY3BzBvGcL0YWFa3F-13" style="edgeStyle=orthogonalEdgeStyle;rounded=0;orthogonalLoop=1;jettySize=auto;html=1;" edge="1" parent="1" source="deXuY3BzBvGcL0YWFa3F-9">
          <mxGeometry relative="1" as="geometry">
            <mxPoint x="-255" y="321.46500000000003" as="targetPoint" />
          </mxGeometry>
        </mxCell>
        <mxCell id="deXuY3BzBvGcL0YWFa3F-9" value="" style="shape=image;verticalLabelPosition=bottom;labelBackgroundColor=default;verticalAlign=top;aspect=fixed;imageAspect=0;image=data:image/png,iVBORw0KGgoAAAANSUhEUgAAAlgAAACkCAYAAABLqVCXAAAAAXNSR0IArs4c6QAAAARnQU1BAACxjwv8YQUAAAAJcEhZcwAADsMAAA7DAcdvqGQAAHuCSURBVHhe7Z0HuGVFma5n7nXudcbx3quOinG0yUGi5BxERCUIigKKkpMYwQAojWSYIYqiooCoZBQQFJAgKkFAMggCogRRkgHFuO5+q8+7+btY+5zd3XufQP/fs+upWrUq/H+l9e2qWrX+qUkkEolEIpFIDBRJsBKJRCKRSCQGjCRYiUQikUgkEgNGEqxEIpFIJBKJASMJViKRSCQSicSAkQQrkUgkEolEYsBIgpVIJBKJRCIxYCTBSiQSiUQikRgwkmAlEolEIpFIDBhJsBKJRCKRSCQGjCRYiUQikUgkEgNGEqxEIpFIJBKJASMJViKRSCQSicSAkQQrkUgkEolEYsBIgpVIJBKJRCIxYCTBSiQSiUQikRgwkmAlEolEIpFIDBhJsBKJRCKRSCQGjCRYiUQikUgkEgNGEqxEIpFIJBKJASMJViKRSCQSicSAkQQrkUgkEolEYsBIgjVk/OMf/xhxJRKJRCKRmFuQBGvIgGAlyUokEolEYu5CEqw+EUlSTZpw//Wvfx25arruv/3tb8X++9//XmygO4YHdZqJRCKRSCSmLpJgjYGaSGkgShCoP//5zyN3Z9zHTxvcf//9zZ133tncfffd5RpIsggnTDeRSCQSicTURxKsPjEW+fnLX/5SbGem7rrrrmb//fdvFllkkeY///M/m6WWWqo58sgjn0HIEolEIpFIPPuQBKsP1DNNzlKJP/3pT8VmZurJJ59svva1rzWLL754M//88zfzzTdfM++88xaS9ZrXvKaZPn16CSshSyQSiUQi8exDEqw+IJnCjvupmK3685+e6tzokKu//q357gXfad69xZbNa//zNc2017y2ec2r/7N55ctf0cz72mnNf77q1c38885X7p10womdCP9o/vrn3iSLvCKJSyQSiUQiMXWQBGsMQHLcTyUkWcXucKAbrv9J88mPf6KQqle/8lXNfNPmLQZShXnVK15ZbAgXBpL1g+9fUeL2IlJJsBKJRCKRmLpIgjULgFCxtAfxYfbq8ccfbw456OBmudcvW2apIFKQJ0wkVRIv/Ay3wnLLN7/4+X0lHdJNMpVIJBKJxLMHSbDGgLNVECBnsthzdeqppzbrr7/+TEt/kCgIFMuC+Eu2XvGyl3evsV0+fMemby+b3iFZSbASiUQikXj24FlPsCAuc0ReOlHZX4WNufaaH3f3Wbncx3IgJEri9PJ5XtYswBLhK17ZTGMGq2MgXYRzJsuwH9ztAyVd93KJJFyJRCKRSExdTHmCJYGaYyLVCyT59380j/7mkWaPj+7eLL7Y68qMFYTKfVaQJZf+IFKFeHX8X9MhU10zQrwIiyEeZAv/Iw8/ouTjpnePenD2LJFIJBKJxNRCLhGOgb/95a/lrT/2WUGImLGCRLncJ3HCjfGNQQjWvJ0wzmDhT3zfKoSguZy4wHzzN2ecdnqZKXMZMp6XlUgkEolEYmrhWUmwZmdGK8aJ5tCDDykkSgKFW7LkDJTX3GeGa4nXLV7IFUuE2MxgMbtFWAmabuIyo7XsMq9vrrj8+2XWqn5rMZFIJBKJxNTCs4pgtREkTRt6+UfcevMtXRLl0t7LXjpPucb9qld1iNarX90svOBCzX77fqb53kUXl3uQJ2e5IF/EXWiBBYu77MXqxMFAtrgm7HrrvrG57777Sr7MYCXRSiQSiURiamKuXiIcjWBJzNgXtf9n9uvOVkGE3KzOXixOat9yyy2bH/3gh51ITfPNs84u4SRj2FwTnr1Wb1h7neLmZHfIGfddLsS9/fbbN3/84x9HpEgkEolEIjEVMVcsEcbr6A/a7kUDaeK8qlVWWrmQqwXnX6BLitZaY83yWRzA/ineBDzmqKO7ZAzDDBVEjDgcSPrT2+8oS4iQKz6dw33uYTPD9cpXvrLZe++9Z6SZm9wTiUQikZiSmPIESyLk3iXewOMwUI3XLLlhcBOukKc+8I+/zTit/ZSvf6PMMrGXig3v/3XoYc3jjz5WwpS3/jphIFhbvfs9My0nQsogWpCnO267vRCxr554UiFXzGJxv8xodcKWGa9p08q3C0888cSSdiKRSCQSiamHqT+D9fcZs0zliAM4Ewa/EX+MJCkayNBTf/xT86cn/1hs/H52512FBDHL9Jen/lz8PDLh17/+dbPrrrs2O+64Y3PzzTd3Z5cga7ofeeSRQr54q5BZK8iYBGr99d7UPPTAg11id+ihh3YJViRZr33tawvJYobr29/+dgkbZ7IklIlEIpFIJCYvpv4MVoc8eRDoNVddXY47+MLnj2tO/MoJzemnnlbcBx94UDP90/s0n5m+b3PAfvs3n9pr7+b9u+zabL/tds3OO+7UvG+r95brDd+6QbPm6ms0a6y2eiFohZh14JEJv/vd78oMGIB4caJ7JDyPPvpombni2AUIE4bZLJYVP7b7HjOIXAfG2WmnncrsFmSMsGW26zUdwtUhWauuumpzxRVXzJQ+iG7JXyKRSCQSicmFZwXBevL3f2g+/MEPNSuvuFIhM8wEMXvk3ieICxvTITsY3O6RKstyI3ugsPEj/L1331NIW8mjQ2riLNJTTz014poBSc+VV17ZTdeT3ZEB92ePPmYGaQsECUL2zndsVsgV4Yi3wAILNJtttllz9913lzwJH5c0sWMaiUQikUgkJh+eFUuEJ3z5K11SBanBlOU2ZoQ6pAXyAvGCXEm2MDEsYbhHGOJc+r1LCsGKZMb9W5FscS2OOeaYEhfCRPpucMec+61zSnqAmSfTvfnGm5rll12ukDDy32233QrxAqZNfjHPRCKRSCQSkxtTnmD99vEnytEHEBvIEiQLwoSB6OCPH2RH0oWNP8ZwkCBPZCf89y+7vEuIJDqRbDmTpB/ka6+99uqSPIiabtJl+ZL04myUm+MhX2yCZ5bLJUjtmCeIeSYSiUQikZicmPIE65f3/aLMFkGSIDOQJsiSZIrrSKqwIVuEx+DmvjNIhCGdQrD+PvPSIIDc1H4QJcyGG25YiJVpIxf5rb3mWjOWHDvpPWPfFFypY37z8K9n7CVrAXnGmTIQiVoikUgkEonJhSlPsHgzj5kiSBXkCGIDWWLWSLKDP2F0xxkmbEmWfoS7/NLLZpCfDmqCw7VGssXhoJzMHkkahvQ2f+e7ml//6uHux5xBlyB1SJckKxIslwVjvkmqEolEIpGYGpjyBOusM84shAZiAzGC0EBsuMbNDJKGz9kstsiiZTnudYsu1iy5+BLl24HLLLV0sXmDkHOstn7v+5rbbrm1+xZhJDUSqjiLxf077rijvP0naUMWiRyf0JFEEXYmkjTiz0eli90hURKpffbZp9l0002b0047rfn9739fgsd8I/lKJBKJRCIxeTDpCVYkIzMRkw4gGJAXyIzLcRhnsnBLtPDj+IXLLrm0LNcxowShkbDUS3fPWMrrhU4aELE77/hps8nGb2tWWG75ZqklliwkDkLHzNqXvvDFGbNTI7NVZSYLd8fUOnGNTBCqVVZZpasLafKpHWTn7K448yU5w3hkBUaCCOLsl8SszntYQB8MZcreMvLlTUz9hmnMD52VA+AX9e/l7geR6BqXvEFMi+M+os5RFsA17lnNP5FIJBKTD1N2BouHEA+pXXbauTtj5LIgpARShR8GkuWxCZx1JfmA6JCODzrgmVfAh+SoGElLwsQ1ZIuZNYgVxzBcfOFFxZ/DTXsRIGXwO4THHXdcOXAU2SGP2OgGadxt1/c355/37ebR3zzSTYu8Sd9r84kP66hr1HmYMP+a1GFH2YYJiQtADskWfvGeqGUdDW1ESkjudLeB/OM9wkfClkgkEompiSlDsOoHGA8mDvrk7CvIlAREcgURgZhArJhFijNZkDKJiA9IHmrmMSsPOONjE4+HpQ9M0kNOYbqGA7VehuED0pzmjtzook5cQxTRY6MNNixHVNx0w41dfTCQK0+iN3/sKEt0DxPod8455zTnnXdeOZn+W9/6Vrk+99xzix/uYZqzzz67ueSSS5qrrrqq+elPf1qOwIhlgXyYeLaZdVDXTS8Yjni4STumh98vf/nLIgc6UwYXXHBBc+ONnXrrgPBtBGy86iiRSCQSg8eUJVhcP/zww4V0SDiYwXLGimvc3GMTOwa39/fec69OIk8/FCNm9cFWh+caQ7o8aE2/Ld2YN4QR8CBeZpllyqnukEbIFTZyIz86QxrRCTd7yDil/pKLv9f86sGHOhl10uz8WEpUjgjlqP2HAcr3n/7pn2Yy//Iv/1Lsf/7nf37GvUGb//E//kexX/CCFzTLLrtsedNz9913b0466aRyUj6n8wvKJRLfvmYwO2irV0BaLPUefvjhzVprrfUM2SDQH/3oR5vrr7++hHf2kni90kwkEonE1MCUIFg87CQDkRRce+21XQIF0XAGi1krzsZiD5Qki9ksCBg2foQtp6t3AAlw1iIu+fTzkIvhoow8JOO1YbC9jn7A8B/+8IdnvJH42hlyIys6Sa6csUMvPsvDfe7h/54t312WJn9yXeeh3UkOvdzvVKPNbxj4P//n/xRS9ZznPKd5/vOfX9z/+q//WuznPve5c2T+9//+32Ma8q3Jzf/8n/+zecUrXtFssMEGzcEHH9zcfvvtRVbqAKLbNqM0FmxDljfkjZcUIJIQPQzy/Pu//3vzb//2b11Z+CblRRddVOKaRiKRSCSmNqYEwYpEILpPPPHEQjJc+oNkQDw4tf34L36pfHNQwgUxwRAG0uI1b+gBHmxzQjgioRoN9QM0XpsGS2mf+MQnmkUWWaSrF5vmccelQtyQRtzcl3hhVllp5Wb3j3y0fL5HkJfkrh9ZBwF0gkRAMuqZq/GYwYp5QbSwIWb/63/9r+IP4cFvqaWWavbYY4+yjAgoo35msOIScQSzUVtssUXJA73JR5k0yADRhHi99KUvLXVFvfQixIlEIpGYOpiyBAv7Ix/5SCFPzlxBLDwP64rLv19mcLbcfIviDylxWc2ZIPwXX3zx5sILL2zNY3YIU3zQxnTqtLg2LnZMh3vEZYbui8d9oVlv3Td2v7EIoURudORavXGjGzpSHrix0e/kk08um/drOWZnlmZWgR41uYBQDIpckc5oxjAxrHElWXE2CVL73//93yPS9wfL1PqmXI899tiSF2SO2TLShuDhxt+lSw0kbLXVVusuWfZD7hKJRCIxeTFlCRYPoHe84x2FYDhzhcHNyem33nxLJ/A/mgfvf6Acz0A4SAc2JMWZLJbilltuuea2226bifTMCtpIlYiERnf0M3yMF99khCSiw7fPPa/ZdeddivyRVGGc1cLf2TzIFfqxj2uNNdZo7rvvvpKcskYZhgnKUxIBqZBstJGMYZiYT7QlWvpBfjC4IYTrrbdec//9949oMTosS+vwiSeeaNZcc82Sh2maXzT6WSYsn37zm98s6cxOO0wkEonE5MGUIljaPtDmn3/+QpDYS8ORBmwaZj/Lu971ruaBBx4oYcC9997bLLnkks0rX/nKEo44uLG5fvnLX96svfbahWQB0o8POPI1z3qmSX/tGLYXeoXBL+pa3ATDdMjiH373+/Jx6AP227+8PQmpcjYLwhiJpgSMfVyvf/3rmx/96EclXeUfS8ZBgfzaiFRNOJzZiX5tpGQ0Qz6SldpE/5hudBNfQoS94IILlrf/RE16rCtAeVqmP/vZz0oaztzFvEnX8jBv7uPPNRvwSTe+HJFIJBKJqYdJT7DiQya62SsDeWCGZr755iska9555y1mt912K8s0PBB9KPKmFvcgU8SBXEmw8IeYsawD4oOzBjKYpuH0q+PhH2eMei3JEcY0o46AQ0S7Z2eNvB34xz88Wd6CdCYLm9k5N/C7L2say4mdMlp++eULwUK+mWbHxgHoNRrB8p42ZENj2LEMces8TD8SqOiWSGHIy3uSHd2LLrpoIVmxXuo6AtY9+t55551FHtI0Xa/NM+Yfr3fZZZeSVpwVTSQSicTUw5QiWD7EePhwlAGkCMLEzBUzUgsssEAhFEcccUQ3HJDYXH755SWOxIx4EDPc+++/f1naiSA/HpjIoBESImV65JFHymv/PFzre5FYmYZhtAHhY5wiP8E7xMqDUc88/YzyhiSzUxAqiFUhUh1C5VIhy4OSLHRcddVVm5tuuqmkPd4PbvSryQ8mko22+5gYpl9DnDZyph/3TTem3+bWXmyxxZqHHnqolJ/1ZT3GNgG4vvnmmwthYo9X1A23RMu03fiPTZyddtqppMMmedtCIpFIJKYepsQSIeBhEx9mkCiXBiFNEidmpXgz0IehcSQ5X/rSl7qkirC4P//5z3cfZoTv9WCLaUpUfvWrXzWHHHJI87KXvayQPWbDNttss/JABiz1gJpIgagPfvEacO0M1rXX/LicCi+BgkwxWwW5gmQ5Y4UfM1rObqEjZz9xZlhMH3cvPQeJfgiWBhL0whe+sBxj8H//7//ty/y///f/iv2iF72ou6HczesSGskVbkiMeXFtWE2UK5KyTTbZpKtPtAFtIdYfs6vEMS/lMF1NzMuN9h/4wAdKWk8++WRJK5FIJBJTE1OGYPnwgijh3njjjQuZmWeeebpLfBiWdL73ve+Vh1ScrYkPwKOPPrrM7BCWU7UBD8wYHjfhMT5MvY8fMwwcp8CBoKQluVMONuBL6ohnGnE2S4JTf57HMNg/vf2O5gPv3617BIO2+67cuI+/pMvT6yFcENCdd965yGzZjSfQeyxyAZHheqGFFmpuuOGGciYV9i233FJmg0YznIbO3rnrrruuOfXUU5vjjz+++cpXvtLsvffepQ7Yf0a9sIE85qdMUbYok25swjPD9NnPfrbUmQZoCwg1s5l8R5L4NYGLxrwlVxBLdADjvZSbSCQSicFiShCsSHIEZwyxCdmZK0gWROdNb3pT8/Of/7yEiQQn2rwKv+eeezZnnnlm8dNf8hFJECBvH6SE5eH/nve8p+QdN8szG6YsmB122KHEiaSmzis+oKOO99xzT7Pvvvt2CZWzVdjMYuHvMqGzV85aYSBeJUxHxgMPPLCkOREbp/shWBrIUCz7mrz0QptOsSwff/zx5qtf/Wp5+YEXI8zbGSYMflEmZ68wLuPxokQ8+b3ON8pLmUOuML3SjXLgv8IKK5SZxkQikUhMfUx6giUhETzUMOwp4pX2//qv/yrLKltttVXZa7TrrruW783VDz/T4SFoGhFex4ckswjE82HNTAkPTkiURApiA6Fh1giC42wS/izlcY4V+6jiZnXcZW/ViAimD7lgyfFzn/tcs8QSSxRy5EwUaTlbBbEiT8iVBMw82XulHCXMfPN1Z0Ui6RgvjEWwuOcsD8dl+LkYZaU+RjNxVo66os68Rxr1XiZmxWgjzHwiA2/6RdLTJquGsJ/+9KdLen7WSDmjvMjz29/+thAy0iNer6VI3zTEWE+WQSKRSCSmLqbMDJYPTeDDzAer9l133dXccccdxQ0MB2JY0uGe+6OAaQvu+7B87LHHygwIBI7ZKpcDy0b5DrFhVgkyA/FxdglChJvP9Vz4ne92yVX3jcARo4wuCXHIJWlDjMo+sU7akCUPVJVImd9iiyzaHHzgQc06a61d/PSXZEFarr766q5+6j9eQL+xZrAkOMxgOctmffWLGN740Y/ylRQBPrrMIazkywxVLSPXUUYJEm2AWayYvuWJbX1isxeLDfKm/bznPa8Qquc85zllv5h5kPaRRx5Z4kUZo/yJRCKRmFqYFAQrzlJJanxo+cBipgI/l2h4EHEPfx7K8eEGjD8meIaNHH+AgQD9+U8d4jVyfc43v9Vs8a7NC9HBeFI8RAebJUKIEKQGciMhwoYIYVZYbvmyl8q3ATFCOSkD9IYk8mFg0mTZERvDBnpIl+QON3urvnfRxUXmd2z69pIX/u4JYwbsDW94Q1kio2zaSMGwQb5jESzdEiwwKHJRp0O7sRw4H42T2yE8kKw20ocfRh34riJkm/hxORPEvChfrh988MEyY0admAb5mfZb3vKW5vzzzy/hMbPVhhOJRCIx6TDhBCuSKx4uNdkC+jELse2225Y3AUF8APEw49qw8WE3Kgg2Yli6K+Sn477jttubj3zow+UbfxAniBVLcnF2CJIFkYFkdfc8de4TzhknSA9hN3jLW5snHnu8mxeyKr+yKjsfH4YcQaR4MEuo8MNm/xeb88tSUifqLTfdXL49iAy8zRg3/a+//volTco2ltd4YaIJFkBviQvpuqyIffHFF5fN5eTvcp3yRhnxk4RxGCigvqKc0U2eXFvmnEP25S9/ueyr42PevLlKHUp+QZ1eIpFIJKYuJsUMFg8VHzI1nJ1i4/rWW2/dndXhTTEQiYMPNdArvRqGk1wxe7XvPtPLrJMbyCFXzEhBoDAQJmesIEAYiRQkh3va+HGPsFu/932FEJU9WB0gr6QKqAev6DOzAXljUzZECZ15M+2cc84p53V1H96d9Jhle92ii82YXRuZ8SIOcvG9RqCelo95DRvkO5EESz1jerHNAD6sjYwYZYnyOZuFjT8vUkCMSDOmG92kH+9jx7qOxzBA9GJ7JazxE4lEIjE1MeEEKz5EeND44GO2yocOb9S99a1vLTNFvqnHTA4fQwamER+aYFYeUCyznXXGmc2b37R+IUOQI4xLffGj0hIsyBazS5AZwhmP+25Kx09DmP32/UxHsJllVU/83IMDgZRMvu51ryvLUr/5zW9mIgelvDpyf+X4L5f0yyxah1SxnEgZYZgpIQ5hgXHjA32YIJ+JJFhtBBbgdkP8ZZddVs7TQo644d0Zqygr9znegzdJQSzHKHN0W6exHnATptYzZ7ESiUTi2YEJJ1g84Hig9HpQsYTDWVNlGa5jPI4BN/5s4BbGM61+HlQ+9L7whS8UQuJMFYTFJb5IlHDjt+LyKzSLLrxIIViQIOJArgjDm3ymgV8hPp1r4mGf+o1Tit4a5QDI7FtknOPEeU58V9FN8ITDEK/4dVTc46O7l7QxkD30gIhysv3pp59e4klcxhvIOpEEC5CW7SzCawjQO9/5ziIDBMqZqigbOjxnZO8UB5sykwgigYvp67Z+AW7rD1iPhK1lA21+iUQikZgamDRLhD6IIhHgwFAOn2QmByIDucKWaEFs1llnnXKwY0xjVh5MxmHD87LLLtslVsxYSbaYkYrEa9edd2muuPz7zVprrFnIHnJAbgiDgVQ5g+VsF/FMB/vKK68sckZZnd0QvOqvn+GUF5SHe8d7y823KPmTh/Jgr7jiiuVNNuBDfbwxGQhW1F1CIySz++yzT5EhzmDpVn5sZYWQg7rO2lDXM4j1WIOwE1VfiUQikRgMJpxg+SDhoeJsAH4nn3xymYnxAE9mZiBWEAdIFjZmo4026n6W5hnkow/4MONByXIaeZKXZA4yJDlad503NN+94DudSE1zycXfa5ZaYslCbCROkrHN3v6OZs9PfLJLergH4eI+ZAv/ZZZaurnrp3cWGci77YHrQ9kyijaG+w8/9Ktm4w03KumWtEfIKDqsttpqJXwkraZBXNMfJshvIglWraflrD+G8v/iF7/Y/Ou//muRoz6z6jkjM1cYw3D+GnBmsRcsb8G1bTPKgFz4x3aAfyKRSCSmJibFDBYPFR9EPGSOOeaYLpGCKOCG+GAzO4MfNpvea2JSX48FH3CAuHyCx3zIH4K05OJLNMd97vOdwATqELK//LX5wueP685aSaKwMcce89nm8Ucfa974hnUL4fJAUAiQhA33+uu9qWx2Jv9IfEB9Lbx25uTqK69qVlphxZJmkacjM3uwIFobbLBBCWNaddnUaQ8D5D3RM1ikhYn6Wybmxx433iJUVmTCeA3J4pow2IcddliJB8EaS1bzjeF6uSPGSjeRSCQSkxdDJ1g+JGrC0H3Ycdkxf/3zX5o/PfnHMvMjWZCISEzwY9kNwvKpvfYu8eJDKM5a1WSiF5RLwsKyJJ/ggWAtvPDCzW677daUT++MyPmXpzoP1L/9vex7Qj4N8kGyFl/sdc0F3z6/hLnmqqvLPi3kVh8Jlvu6OHYCkL+6YI8mP/c1Xz3xpJKmZeRLABjejgOkhZ6mP56YDARrNFjOP/7xj0u9S6riUiEmEi1sDoRFxjg7WMO0x9LFNkj40cLGOozhjK9fW9vhXp12nVaM1+8MsIjhZzXuIBDLIOoTdYruWndRX7eVJcC/DjtMqJ+wjKMMbe42nQFur2PaMYyo855VxLxETFN3nY/xYlzC9KrTGN84+nkd04vp9sJYYdrKN+bRSz7d0U/oR9yYP+7aD0Qd47022YaBqIP5mHcveYC6xDC95MS/jh/j6o5+kwHjMoPFYBAVjwUFYcH85uFfl48aQ0Q8FkFy5ewQBALCcujBh3RKtBO5Y0grVnBbZY8FyRWzEcTn0zssPX7/+98v/oBZKw35br/tdkUuSR/yLTDf/M3SSy7V3PiTG2bI9/d/lCVF5GYGi7Dq5ZlabETn8yvA/MFosluWmPPOObfZaIMNy6b7RRZauPvmIZ+CYZk1hhcx/rCBPpOZYLnEx8sUnCEW5YkyYtDDWS4IFmiTty7b0XSxvu0T9aAT/UUkddG/F+r8iUO++kdCpDyAcBr8Y17ExS/Kbz/3ejxAPrUeY+VNuKgniOkA9cPWjRkvvdqAHLGukEV5oj6OZ0L5I4wXl7hjvLbwpAMsk34Q44l4HfNRJt+6FYQ3nbZ8a7/4Z1WYNuB+vB4NbfmB6B8/bWX9cN8wsVyjf0wDdyyrWM8xHOBavxgHqNdY+tVpzi7Mh3qM/a+WKdZzlL9G2706biwbEfUlTN1+JwrjvkQYC+IPf/hDpzSa5sH7H2jettHGhXw4G6OJMz+Qq5NOOLHEYYaofHamg5gmmJUOBGIHAHwPEFBJDEDxgUa+7Hti+Q/ZMOyvclZq5RVXap7644zTwomPOeGEE7o6YFwyxA2p+MY3vlEaDabfhmFDpAzI7+Ybb2q+fe55zXHHHdd88IMfbHbcccfm5ptvnilsRJvfMIA+k5lgWd7HH398mZ1i5gp5ncFCNuWXYOE+9NBDi4w+DOryJN2603NtuBheu0YMD7Db2nVsM9Ftu45+os6TsLR10rfN60e7xI0f17ijHKavXy99hoVYLsgn9Ff+qBeGuuM66oWNaSszEHXrFWbQGE0WDXAMsQ7RD6P+Xqsv/lEfQX76EzaCtL1nmY+FGN445BHdEfjjF+tHN3pgQ2rUh7D418APHecEbeUD2spA/TCj3QfK5XW8B7iPsT2qMwa3fuodyxOb/L2udeC69psTkHdbelEGgBu5lRX5rUO2ymCrM3qqI2GJU9eleUY9Y5iY90Rh6AQrKkkhCQoTXPq9S5rVV12tSz4WnH+B8gafs0LO+Cy7zOubiy+8qFOKnU7fIRTdz9sMCFQOxgbbq3GQ5+233tastsqqXRKInNjIv/k731XCEJ7KNs29PrlnCYNuECwMm9NvvPHGkn4sG+KMBeUt5TBSFpA/45J/HHT6SXMYQK/JTLCoU8qKD2zX8kC44jV6uAH+iCOOKPF7yes16VMPDhYa2j82AwvtpG5rEV6b5u9///vuYEvapEP6XBPG+xGkgeG+6ZAv4eqBK4Z1MMREkK96GRZEO7bpYSPKp7yWgTKB6DYOctayqhM6OlYB/MdTrwhl0thusKkHEeVTX2z1rUF4H26mDWK76BV3LJjGaPEpY/K0j0S0xcMv+iuv/QmQZi8Q1zizC/NHPz7fxmSB5YccXmMs24heelEGmLHk4z4mpuM4UMc17DBg/jF9y9576hXbJe5eMnHPNAyDjX6WMemJWAYx/GTAuMxgoSyFoNIWDktwnEAO2XAGyOVAZ7Mwb3rjes199/68LCV2iVXHZvaGQTRWoGmTVz+FbJhYSbhJKzYC5cecffbZ5Q1CSRWyMiOFHp/8+CfKMmJMj3TYY7bt1tuU8ITdbpttm/t/8ctyn0HB8HV+Y6ITBGJFeZAHeVEmsQECZR9vIM9kJVjkYUfeZZddyqxV/bmcaJCTMBCvk046qcSzw0d5HUypw3pgFYaP9R7TwB3bEOnU7THaok5D1G4M6YmHH364+e53v9t89rOfbfbbb7/yOaBPfvKTZR/fxz/+8eZjH/tYWcqGiF544YXNfffdNxJzBihHy1J7vEHbqQdmrvkTc+qppxZS/KlPfar56Ec/WvRDL3REN9zozfEbF110UdEvlg9uH96gLvdhQT3q+kMvbIxy3n777eV8NrYGcOwIX3Gw7qKu1CllcdZZZ5VPOHEcjEAvx1KvRWzLvdp1G0iLdJDV9LDNS5gm+yE5v483e5VbPTB77LFH8dt///3LjP3ll1/efZNckK55WE66RazfsRDj1XoI04vtP+pe9wvT5L7lYJhbb7211OUhhxxSzkKkvao/9Uod0l5PO+205pJLLpmpbQLH0YiowyAR9Y554K9e+FO/jz32WPezYUcddVTzoQ99qOgU2yk2/ZQ3tU888cTmiiuuKIdsmw4gr1if2LE+Y71MJMZtidCCsMDvvPPO8lFjltggKCyzOSOEiUtqq668StmfddABBzYnfuWE5rJLLi3kpBCuDmLBgvp6NNQVU18L/B0A2H+DXMiI/LiV+XOfPbYTeIYMhLeikfXeu+8pbw4esN/+zW8ff6IQxDjAmAc2pi90gkmwcNuxSCemDeo0+85jDkA5TEaCFcv4F7/4RbPyyisXOZBVeeJGd/z0Z3/bpZdeWuLbJoDpUecYHuzvete7mve+973N+973vmarrbYqNte4t9lmm2bzzTcvAwrl5IBhGwC1/eijjzabbbZZiWuauE2bN2v5ViV5EMe27MBNHvFPCcvThF9hhRXK27nqGE2sP9wveclLmpVWWqnIzgD4y1/O+KNAfqQrYtkME84CAmz0O+WUU8pHtvkWJx/0fv7znz9T3WJHvfSHPKPfcsstV94ohlT+8Ic/7OqFjuP9JwCQP7qRdyxnyO5nPvOZ5m1ve1v5wsB//Md/NM973vO6+tX1qc7YlAmf4mIc3m677Qqh4WPz5kn7wB3rMbpjXfdCLKM6He9B8L75zW8W4sTH6flyBR9V989OL+MfIt6cXn755Utfg3TdcsstJV3y8EFcI8rVD2J43PQrbOSm7Olv9D36IWVJn9JNf3XGmzKNbQkZ7fuU/ZFHHlk+xcUh2nxdQl2px2j0/7d/+7fyVRM+o0b5IY/p16SrxqyWQb9AR8cb8kAviDDlwdFBjDPxKJzYD6PBn69p0EbXWGON5t3vfnf5Axj//JBPbEvo7r3JgHEhWCqM7XQ77JSClmDFWStmsiRa+DEzJAFzI/maq6/RbPq2TUqhH3TQQYXJw4xZHrHhzgoIT+XYOOtKIk0JC/8elAtb+RdbZNHmBz/4QQlrOlY86WGYiXOjfDFYoXGA+no0lH1oneDa4LbbbisfFGa2odcAA8xnmEDntg4UBwnd40WwSFsDmLWgIyMDgzbyRpmVT8IFubCTx3YSOzr+/As3ftRXYx4cqwFss6ahjLEt33333TOl15aufsrmYOeSGX2QPrPUUkuVh2ydBmd9YfCnXHiIYXDHcsHNh7KXWGKJkl7sQ1HmYUIdKSc+eQSp4sDgF73oRV050QNZsalD9MAwyKPnc5/73OKOumGsb14agYQcfvjhZTkI1HU1TJBHfGBBaJnZQE/IoDpaj8qNTrWOmLoeMRBL2gLn/22xxRbNeeed180PXc0fqHs/4xMwDUA6jqP0Id7SRg9fMFF2jfLS/tAB06stYnMfwkF9+ZIPeWqsr35lF8YDxKXd4cdMS8wfYz1oYyBNxLEP4saQ1h133FH+JPEWM2HrulF36ghj/8TN/Vj3kM3VV1+9+6UJdO6la9RpdmHa5AOoZwz+zFJtsskm5W38WBa60dO6RJfYVtWtDg+h5MUw/txBJgVjWq2nMk0kxoVgRcVt5AwQECxICqRKcqWBTEV/Z4v0x+aat+ZIh8bJv5jFF1+8kC3ysCOPhl6NLPrbmQDyM1PgxnbkQw5k4ogGPmtDeIDextOWXHVJ1ggsoxinL3SClhmsjs2bmNOnTy//ZuhozMrwL6ZuaLOU/hyCsqgHjNhponsiCBZT1nznkvzp3FGm2LGxGQDw459ylM/6Fra7b33rW+WBwaDgoOFDDn/txRZbrKTnn482+IDioeTAZHzkNj38uY+bOKQb2xQDL/+OCaOOPqxIA2MZWA7xmnAa8ojhIGzM7JlvLKNhAd2uv/76ZsMNN+x+T1KZ0IUyx0S/Wqdo0IvwhMNd34NMHnvssSVvdRymnrFt8bUJCAmED3nQQ12QzbrnOuocTV0+hI+6alOWjB/MkKmf7dqxqh+9DYPtOPTggw+WBy9jt7JgkJn8MbTJeK+uM+XEqGvdHpnJo2/5RxOgw+zUV4yD/rbxAw88sMhCH0dmyhIbWbDpm8jCLBfxkMO+DNliKZcDtKMejhXEi3q3lYFhzFd/6o8yZi9YPf4PGrTR2CZ4qYuxgD9f1hM2eiEn17UubddRN8rD8jGNF7zgBWXG86qrrip5KwPy1GPyRGHclghVmELAwD5hopAjDvaEMEFYJFC4PdoAP4iMYQqx6RAI/qlIsDj/CT8GnzPPPLNUtAU+J4hyA5Y23/jGN5ZOYX7kjc2Di/B2xr7yJ2g0PWC5RcR8jv/il5rll12uW4aW3Sc+9vEyuyUJ0+5LtgGA8rCTRRM7lAMFBKu8WdqBuvUD6yjG0U8bcF+j/iwpIEMkV23yYpSZQRXUhMj8HUAhWISPA39Mx3xYwgL9/CFg9oJ4DjZ1mhgGIK5jW4S4sr8h6kk4BytMTJP41ot++mMru/ENTxoQEMsARDew7JVtLBA+hjU9Hhy8Mcu3Ic0fWeqy0R9j2cT7XEc/4+uHHR9eXPNnjpli5PIBRnnPqm6gTTf9TO/oo48u44wyKhN2rMNehnCYXn7Y6FaXD7NafBOVP46grkugjJSDcrfpT3+BULCMqczkqVGOaOvW6Bd1jvewuWd6GMqJWTKWeoE6KDeI5d4me+1nX2X8IM+6j2vw5z5/4gCkirzcImM4wtDu1KM26OM97aij19GPcDyX2M+F/Oobx8SxoN7RrtPRJh90gugrQ6+2GfUczR2vo5/+2LTRnXfeudv+lE+Z43XU3fvDxNAJlkpgR4XobCzvSZAgVZACiFQkU34TkLOxJF2FZL12xgeNWV6hEbFOi5vpUT4ATaEOirmTlh3w17/+ddl0yJqwBJF8mVr30FDCGn5MUCTR9Akaip2cDZ+UCbNqvqU4rUOuKCtOeb/zjp8WktVdRpyFfOYUyFkPBHaM6CbM0ksvPdPDqh/EOqZ9Ue52KGE51WnyaaQ2eTAOdg7WGNyQal7OqPMAtm/rflgEi/g1CYjp6W/ZkC5Lxvg74PHQieF1Ew9TD4wxn9p4L8ahbOsysnxifxoLxsGOdc1GdPYcmX/UBcO1ukT/aOp7Ehbd2NZ/DOd9iB0vOyijQM7abzQQNpaV7RQ/xhu+txrlULZokJswGNyGjXUSw0aduFZvDPdMh2vcjLVxSUb9lDvKT3vjvmGwf/KTn5T+bX7mE/PU7f0ok27avTrVuhEmxiFNru0r/LlggziyKi9lHdtiHCOiTuoi7KtjESzlYTYJkCbL/MyEIj8yKmcdTz/tWEa2gRimLS10f+ELX/iMb9IiRz0ejgbDWg51XI6tYd9crBPyVmZkinJFE/XSWGe1MY267gnPBAfEVSCrcmKjM351XQ4T4zaDJVBUpc8999yyPgtBgRRAqiRW2BAr/SUO2GWJsENsIFmQK9w8+CBra6+9dlnTBnUjmFPUnZJ/I2xk5jMrdDTOUgKG6+shQl3PRn3HDsI/hxWWW74QKsuLMnQm8IO7faDkEWeyxgvI2NaB7Cix08UlQmGH6GVELGvLXxsYFj+WBTknzHyZusau5Wy75gBa0PYQ9VpZxoNgmV4sR93oikw8VLhu+2dZpxV11t1WDtEd04oDPzNZlonkqC6zsWAd2ta5ZjaH5R/yJX+MOmsrYy0rhnhRZvwiaelFYAxb32O7g3XX1uZGg3pF8ogf6fB2GGOb+Zu3OtKu2uTBqF+8trz0q9OL/vppmx577ZRR/dQ56m4fIBxLdCyhmV5Mu5f8GO5FWaKJadR+bde60YMtFDyI6/rhGh2ibqK+7pdgSTJ4YYJJBWY9mU1T71pm60n/tvvxus3EOPZtXszxSKB+xhlR6w0oI+uXPwBsXicPdaplHE1Hy40+ZzjTse7RATumozvmRXjIJDOV8XlQP1Pa2uuwMC4EK1YSSnGN0hQCb1kw+wRxklg5m8WGdk4oZ+lridctXk4q7xIwZr065AqSxXIdy4WQLPYoOGhpzwmQta2RCXTwvjY69l15ROmd/Exok8OBmXO2KDOJKW7KCUPZXXH59zuCdRg9R0hAtEbRaZCgDuww0dhB7EC4IVh0fuLYTsbCaGFiPbAX7f777y9v87Ch1s4bO60mdlrcPsiYir7gggtKem37pZTFzj1eBCumFW3AxuyoI/5eS7i4xnAvDn7mEeNjzEP/WF6YSLL49FRdLl730z8Nq80RC+ajHOaFjSzRH4MedXkR3jjaUV/cpFWXgfHMQ139dFJEfd0GwhiOtmqZ8Bake1hq2TG1jlwrI0YZ0QEZraPob9gYp77WTzeGMZs/KSKOdbjtG/Q5xmPTs6yi7KTnNbbGfHVTBvYjdYpp6PY6pqGusRx5djALStnX7dD6iP51XfZLsMybZVbACgvX/qmrZY8GeZVZm/RMU7vNxHQtU56V8UiOfvof6EVQONoFsmge2MoU6wdT1wnGsMbFxHhRvxgGY3q4CRfv84ILL7yhXy07ftZlXafDwLhtcsdExXTfdNNN5QEzjQ3rHROXCFny2m/fz3QizPioMZ+d4aiGHbffoXnzm99cXvlccskly1LBS1/60rJMx1sdkI5+G0+/IE0bVtQlAn/zjTrOCcZKg/s8uH5+z73l8FNJqpvwcbO8SpmVoxxGjnMw7rBBedSdAxM7Gm46CVO8lPOsykV4DIMHA/8TTzxRjl7gXCBm91jG4a0T35iLHdeOWstIR+eecnLffRR02jjjIJR7IgiW6ZkmAzjnCeFGX8KrK37KEGe1or/hYjzvafCLg5sPDQxhMfTJ+owiy6cf0KcM7zKn+cZ8dJt/TR6pA2bKOQKAMYNZjHe+851lMy5HVLAZmj9o/AM2DQ1xTTuWCzb+5sUr9nEA7xeOJ44vzIizT8m8tGsTyyD69XrYY0yL9k0404j3MaYZ9Sa8D0BmRf0zBJTduqJ/sLGbsLGsTI98Y9rYmrqt1kZ/wpGOtvdNt3Zr1IF4/mFS7rouRF2n/RIsdd9yyy3LTB5hbS/ooS7Ij9u2Vuse9WvTt03P2hCH4yRAP2NNDcrIsuFrJ/Qd0lXHNhm4F3VRVpYTIXwsG9MnN9hgg/KmJX2TI1Lwe/GLX1xmqmM80jKfXmXEfd6uve6664rc6tpWr8PGuC4RRtKDoirO+R3OTEGumMGa1iFbHNew5OJLNJdfelknQqeBSw5wduLzEOUfMmf5MHXN211xg3vdKWYH8UFaVw7X6GRe5jcrD5B+YNq99Cn5dcrmmKOO7s5gvXyelxW3y6oLLbBg853zL+juxRq0jL0wFsGKAwUzkRBkDtDDcAbR9OnTxzRsOmdf3Kabblo66dvf/vby0KSDxrwwkgDyjXnXfrV8vIjBskIkgDXJqut/vPZgmU7Uh0Gc5cyou4ZwxsfwwKFcmNmDhDDoLbTQQuVPi5viYx7ErdONdaxMygPxQDfJh+UUx4Ox4Ovw5G15auNn/tj6IweDOG8YciwMbxuaZ/xna7+GkDN+7LDDDuXhQbqmrb5cY5uXbsqbhwFv3Yle/TXCMMrAtol4/pGG/GP9RoO+1F+sE9wsC7F3igcWe364xsT2SJqYqIvx9TNd4uEHCeX8swj0UAfcjMWUFWlLaDDqUOtCGP3so8Rnnxs60P/o07wljg4QUJcdNcSv08XUZac+2NQbB+zSLupZ6ThG1nVpXx2LYGEoM/5osG8Xt8b7xI/tClkpY/RkdYdZIsZGzzgzzVpX0lG32igffZrZHZ9ZY8H+YniuH3nkkXJUjXrEPKMMymcYxhImQ5gB5eBfzseKaQvy4I8yBAlSyjli/PkhDdKSoJpHLDuM+dPuGS9Fncd4YOgEy05Xw8bLQMeMA42ITuTsFSTL/UQcMvrEY493SmhGw7ZxW2CkFfOh8HrlOzsgrWfMWIyQPfOpbWQblAw2bPTEjg0FdylLyuZPTzXLvX7ZQqYkqpBUZrNwb/O+rWd8ZqgTNg4ewwTy0iliB4idQBtTD4J2zNFMHd44+tP5GFxi2m3y1ANcnb6v5tMOetVrbI9gvGaw6gEmlgF21Dc+7JjRY9Bn2Y2BjCWTK6+8shxmymGNnIXEnxc+fs5scXwDMaYT09cdy5sHBWlaPtixDY8GyprlMtJBF9Ot24pu5OKaPDklmu9xWq60RdykSR05lng2UZSJhwhvvPFAN23LGVs9Y94Ylp7QdVaBbMy2Ep90YpuNumqUJT5seCjzhvP73//+ciAj9ck+Lh5WLI9DJM4///xy6CNh2DxPG4h66cZE3SA9yMFDHhKJvJSjZQlw48+fHuNqU17WjX7kRZq2JfwJx8tD/Enad999y4MYPSAFjz/+eNkgznln3/nOd8rBqHyBgX23/pnCkJ561O3EvKMb8sLeKFAvKYm6vdqmxiJYdTvR1m39ER8SwWZ42h1tnnKG9LMUh/68ZHDMMceUc8qY4SEe8c3DNKM73rNMmM233vrph4QFPgM5psj0Yhslv9h+rG/cEHzapCeymxbthf4X+yK2eQJk5CgGXiKj/ZEeerXpra1cvnhmfqY7Xs+/cZvBsiKxKVQQC5EHGA3M/VfYkizIAsuD7B+yoCwgH3jYmkEjNkL+5ZAfn6XBgDjAGDbqNgiQbixD8mQwwCYvidMpX//GTAe1xnJkhvDrJ3+tI9zT6Qwb1HXsCBo7gsYwDOR0TDoIBvdYhkGGjq0hHjZ5mE+bDJooC+nptpPuueeeRRcHVRDrWnhtexjPJUJljcYywI3tLAc2G1M5L46DeW2r2ugRdcOfgY+DA9lDUstv+vpHP93MYplWtMcCL6zw8CStqE80+CGL91jK5U1PQPvDMC7EcUc3QFeusamD+JD92c9+Vv5xm3ats26MD8v4NvFYsBzIk20PxKcNmo95YNf5GYY9J8y6MftlnrH+ANfmpe4cicISGfpJUOw7MQ/7BO2UN7RJqy190oUQKZdtspY73sM2/Fve8pZy6C9EMyLWleN7LFsILUSSJWRemjKP2Jd7lR264uYPPqQa1O0D1PraV/uZwcLE/qksxoFQ8jUHZ5ZErLMI/GmXEFDqjZk8dCDdqKc64kf+3mNWF8JCOppe8J6kh5lg0ze9eizCONPGnzLGT1abAOVKHfrcMv2op27C1f3x29/+dpk9i+VZl63X6M8+RpbcyaceX9vKdtAY1yXCXkBROjv/qCRYLhcy+8L1Fu/avHn0N4+UCmqrlDkFaZousIN1/Ts/SUzXdIgK9+qw8XpQOO2UU5szTju9ueWmm5sH73+gmz9QPpb+IKHrrfvGmQgW5TjtNa8te7He/Kb1mwd+eX9X1gjKU79BlS1lYUePxs6JrRsTO8sgTOxwmPrhoTteE8Zw0zv/xuuyqstN6D9sgkW8tkGtlyE/ZeBPjN9RRF7qB3kd9Lim7vVHJmzLgL0XfBeNNOvyw0/dtDVM19svQCxD046wDHn7inwkHXWeGsuDrywwIw7aXkToB8ii/gA3L0egk20p6hoNcuDvmUu1XsB07WPYHhliPcWHRLzGxLqnfJiVsmxJi/R5KOHXZrivMQ4HxErwYh7Igz7sWatneUgL/UyHowBcymkjN9HGqBtL0rRJNsVbJspP2lH2aLjn7CMgLsdBcGyN5Wh94NbENmSbwnCWEiBd6622hX21X4KFifpbPpT5tddeW9IS6C65QKc23THcg5Qxa0lapFnrGvPEph0Rju0X1p1lDvCLuhoGsGRH/ZoOZWa6liFu/mjgz4rU17/+9W56sa5iHqPBcJSF5Joz2eK4QJ61QT77DG2XMUE9LdPxwIQTLAuQSmTaFzIAuZo2suEdt7NY3zzr7FI4sUEMAg4YyIIxfSuh+I8cb8CZUsd97vNlv9N555zblV9bDLICkWfRhRcpZHP1VVdrNtpgw+Z9W7232XvPvQo7h9XffdfPinyYa6/5cXfmSnIF2aIc8YOogVr2omcPfWYXlIMdL5q2gSA+ROr7c2pi2nEw0N/8HCi5zz/EujwcbOjwdRnVYcZ7k3ubIZw6cowJ+5CAgzdA7loXoT+DW2zTEBnkJ331wJiXftYrgy7LVORJWjG/KEcsAz41xABK/JiHD30M/pbnl770pRKP9GaXXAnLJMrJQwl93SOEIf8om2a99dYr5aU+MZ0aLAGxvKc+dVrxIWJbokzYl8aLHaZNXrS90fIC6oWhrHzwsXwDYVA/2xh/fMmHsI6V1pk2nxBi6cl4sc5qnawvbDZd86o/oLxi3XE9mi7eI1xsn/jzIWuWpcgbfdrKVRktX8KdccYZJY2YVrSF9doPwYr3CGv58L1Clj0B+ZEmtmUaQf4a7mu4pv2w1E/61l2bvuTrLCsEhbZS52ceugWycW4lcqMDtum2uVla9zxKEPtjzK9fKKftjzbDlwbIi/I1X/VGRg1+LE+iryRtvDBpCBbAzdIFRzC89MUvmWkWi70J/AumYG1Ygyos0rJDkTbGa2aEWArk48wchbD2mmsVuSAqCy+4UJleF8adFaD9zF13ZiAbDyaX/SSdysDmSQYSvs34to02LvuseNPyLeu/ucSx/LAJTxocfcGUrbKq6zBA2m2dnYavm87hYB7Dxo47CEPabWmap/dYZmDpxLbpYDoWDD+ZCBaGBwh9in+gyGg+uJU5ovYzXDSkse6665b0oyxRt1jHXEOAiGv5xIdi7MuE4YHOP2DijqUr9cZLDrZn05+VvqheNUjD9CAivEhBnv5Lj3JYL9Q3SyTXXHNNiUe6pBPTx63Oe+21V7ct1OnprsuTl0AoO9LRrtFPv7aMrAvSgZyQH4aT8v1ocGyfym6+EBPC24eUVfKi/Br82D8lfADPSp3VQBZkVCbeovU7eLYh+6IyaCAm+K266qqFsIBYrtrCshiLYJkPNmWgHJAVlucButvGIkYrC+TBUA/YLPnxgkqsA8qefJVBObjPM4NzscijV/vBD7m4z8sfphv1wK1tGfBnIb7sEdth1Kktzxpt5WLZ079Y7oxyYGKZ2/5YfvbPCGm2pTsMTIolQoDiNBYqHTI17TUzvu/nfiwKkn/gbNAcFmJDAMjEzNWVP/xRIVYSHN7Qg+AgI1OmTEkLG02/AwWhx2pmNFbLQrJE/pwT5id79EMm5PPMMK4hq8SzTLHZLCl6ydpPBxgLlGls/Bo7gZ0WY2eIfoMwzwkP6DjYkA/3lI+9DLx+Domp65Fr20ev2RHj2HknC8HiTSyWgAA6xHqt6557+NX6i3jNdxHda4Fpq7dYzzvttNNIzGf2NUDaPrjZ70Xcuu14jW058LZkW51EPfsB4XvFQTbqlSUoHsbqqozqGeVlMzKo/73HwZ1ZIzaaG7duK+RTpw0hE6QXZY7lGusKqF80oK1NsKGaGVzTi8QF+WN4ll9WXHHFIl9sA7qjH4Y6848peVHn9QPPa+WM+bX5Rb1Jz3Z0ww03lDdiyTe+pOFMj7JZh9jx24XmEfMC/RIsjHk4e8Tspvu96vqKeke7F4hjPXMWWy2LbQdj+8GPN1WpY9Kv6xNwbbrUL2+FElfSphs71i9lzHI6YLYJY9pR17q+RwPxlEWb+sHN/i7zVj/Hxqgvhj2nwDTGA5OCYFlYgIJnsyJkwWWtMhPTIRGSCTb4ES5W2OwiVh7g2gbBzNEO221f9i45A4RcyMTRB4W0dEgfr7ezDwKQlvH7qUhCRtMGXgAgL8pDEoWZ5yUvLTMTyKBshENeysywyI68xJd0Ec/PJ/RC3elmB5SnDT2a2PG9tqPaIQZhYh50vLrT4eZMFt7ciZtr0R1DHcY6FW11axgHj8lAsMiDWWFk86EB2nTqhbZw6sgbhuRD3alXHHAx+rNXBCBHlCX2OUGZIDtxLSdtDflAihkPIgYxLgBk0ljfzGJtvfXWpfytA2SMums4/Nhva9Y6Wn7x4FRN1FljmbJcR1zjA9JtK8P6ug2xHfAwVM/o31aeMf+zzz67yGY7j2VBGWFHndgTA8gjtgNAnsrQD2LY6PaZQnpsPWGMtp7qstVPWVluo58ZH2iLWSFYMU/CMdtnfMuR9GM51/lxralBGvhz7AGHNVvu5Eue5s21pAgDkQSUVZ0uumt4a5PwpIvBbduPaeNmTxl6xPYRQT6kOSswvOVDGrYbXoJhFSfKpIwa64ZtDcA/C23tetCYcIIVCxs3ivPPGFIgqSjE4rUzSAHr/L6RMEjEBsbU7VFHHVXWkadBRjr5Q2CQiWttSIxntPDaLP9uQUxrLBAymho0pG222abIEJcJmc2C6JG3x1soEzNYlJ1uZOeaMKUsO8SL8uTNlfhQr+WeFT16gUZsJ4zGzo8dO4Rh2+LMjokDADZ54eYfHNP0vA7Nv8lee0tiGcSBI7ZbYVjDTCTBIgyGL877fS7l6jX4tWG0QYgyYNkRWWJ9qV/UkzD0X+CMDnJYZtiWKccJmFY0pofxn/TBBx9cZKzbalv9zC7qcmP5GBloS+gWdccoJ+TP86Isxygnbo9lMA7lZH/AL6bNDAgHM49WJ2JW9a/TjG3EBxIgXcNiE44jPJQ59uU2Q7/jrT/iKqPpRZljexgLvWQnDfs1S53kH0mgZa6xT2E726He2sK+OhbBsv5or6TLErPtv9fYW+sjCKMRuk0rfnO0V53QjpALwkH8Njkoe9zYPCdIYzQdKQPeaHSmXAKELrW8bfXdC4S3PiMRJC7lSFr84YmyRNmQWz+WRSGhUZ5hY1LMYFnBFj6GfUTTRsgMpIBXr3ljAhhmTkF+NgRkIE0OLmXAgJSQr8ty2FxjIC7KBlHhnyonx/Kqr3ubaBT9VCQhomkDU8rkS54Y3JArbGb0kKHIAnEamcWSECq7hmvCEI+pc9+4Ajb4QTZAyrRu9Jg4uOlm2p5yZBDG5lA8Ou2cGNJi7x6HTX784x8vr4G7NwbU7Yj20Nbx63DxASQsN+9NBoLF7BWy284jog5tdR79YnuO8ZCH9keecVCPcmCjK2dTIUuMT1lb3tzDzR8Ky0Y96jLkgcXy5IMPPljiCtJQzrZ6nFW0pQVhZUlMOaJcGgkgy4SkEdsV1xiIpEtVmLpOLQNs9Ge2qy6ruiwj6us2WB+94sY2GcMQD/AGHHoqay03NnrZDlg+inUEohtZ1Cn6jwbDaccy0Y8/zW6Kjg9dZItt1iVvDrdkbKzTFpbLWAQrps3yGX/oSCv2R8q1ra6iHqOBtEyPtzHRwfKOdaEfOnPNAd/IIgkF6mn93nvvvWV8Ih7xYxrY0bDPCdLTNo6hXyxL3f1CeQDlYhsiXc7q4zgGZIh6Rzf9kbpgttU0+i3fOcGk2eRuAdrYfnnfL5o1Vlu9bN7mrTcLEyOie1YRK5m8WWZgjwgzUkw5us9KogKZiaQFksU1s0fG4R86HdNlgX4rECk0bYAQnHzSV5tPfvwTzds32bRsUn/90suUTfY83JBhWod4IS9yYpQP27cHCaM/OiAvr90LyzOWzZyCsrWTRxMbv9dMb8c6HZQM1gPpmX6sG/ziPcB984/+0V3D8KY9GQgW0/sC+dp0GgsxbK2jS2bkFR8msc5xc592Svw2sqcf7QXyrw6mgSF9/EgP/dkXQv7KF/XTHgTqtHiIeDaWBAuZ1Fm5uV5++eVLWSGjYxy6kqbLq8bDmJ71yz3Sow1xyCYgrShTLd/s6G6cGDeWq7LX4OWCWO/RrbE8qFffWGyTMcoQ29xo6CVbTN9N+sx2xvpSvuhWVv7guQkc1PL2S7AwkjbOkGO8jXrGdKNbneowNbxneN4S5llEPcS6UC9s94Kxfwn9RiNYnCdHOsQxPdIwPcsO8uhhzKTh+BBlj2Pq7CK2C/PgMFaeZXWfwa1Rdgh+P+PsoDDxBKtj/vr3pzsIFUAhsrn81ptvae7/xS9LoHKoZ8sBmZ2QXXLytO8zQZwSr/PjzUBPYv/Fz+9rjjriyEI+IB6SFK7jrJBkBT/cEhmM19xjlmjXnXeZkX7HcDZVFLDk7XWf6Mo+AtwsR55zzjnN0UcfXU7WXX/99cveAQ5h4+C6KBtyYbz2pHfOxHKadVgg7TiAaWIH0A3Bcvq8tIGOnsSfE2PZ9TKDhOnZ8YdFsIjnYNIrTa459XiYUN/pIyd31xuHlUmbPyLEsV6EbuqcJUf2xBFeXbBNA6PuJ598colHepAW65zyx3g9J4Y6QT5s0jSfz3zmM0WGWLdRRt28xcZGaxBJJOD8p7Z4bbpywrd/3EB80AwbMa9YV4C2G+up1iG6mTGJiG1gmFBWZmMgH1E27JqISCY8sqEN/RIsysT0OT3f9jNo3U2P7Q7O1NVjhEZZmdGnbHqNO9w79NBDSzrE6dUf0Y8XaShfwBg+qP43liEv5PRke2RRzmisU56VsR8NGxNOsP72DyjSDNgRCjqekKzuiekdssI1hWpjKoPfjKBdU8OHXRedQKT35O//0Jz7rXPKLNm0EXJV9jSNLAVCpiRNLrlJvnAbLl5jc4374AMPKnlBsP7yVKcBByE9U6uQrzGAviB2BP9x2MiADZoTs/lgpvK6H4trdFpw/gWKfIsvsmjzox/8cKbyrDGIQYD02xp87KC6a4I1CKCDZtgwD9vceMxgmQZ+ceDDzcd2hwn0pX7Zr0ieylTr5/VoBMv65rwayss42rpJ03Sd0QHEN03s2j27BsR6QXZw/PHHFxmcEVG+2s2Dh9PNSQsZiY/hsETKo1c8jQ9nDmy03JRrvBDzi3XHG5DOhiCnssZ613Dt/hfKYVD9ux+QJ30Smw98K2dd1spqf+VAXcajqL+wTfQzg4VhCYu2DSBZg9Qf+agX0uQ8sje84Q0lT/WsjbJCsIjbNoMFmPnjnDLCxrRi/epmu0lbOeE3TCMklcpX163ys/2HMXS82uCEEyxmryimWFilsTjzMzITJDExnIXDVTRjgcZ0xRVXNNtvu10hGpAqiAgkC3KkDSHhHte+MQhBIY4zVc5u4SY8/rzBR3zss844sytYIVUjJJHrrn59AJ0pExAJY3F30vzdE78taV12yaXNssu8vuSNTMitbsiHDhi+V3jJxd+bUa6jINbJ7AK57YTRxA6gOxKsQeQ93lDm8SRYdZoY0+VgzGECfTGcm0R+yGTebfU7GsGyfXM2kvGMW6fJNRvI2U938cUXl71MvCmGzZEm8XpODenwTUYO89XN9xo9zT4+eGqdvWYWAB2dwQLI6fEMdbzoxkDS7rnnnpGYYewLZThMkE/9MKK+rHdMLIe2Bzt/+mqyMl7yA8uelw4khbQj2xbGspc08zDm3EXljPJKSsYiWObFkqNnQ0n2BgXJAnVC2mykR696jNBEggXaCBY2untYq+WEbTnpx/UyyyxTXv6w32HTZ+r+NGhDHmysJ3/aXZRJE2VlX69Lv3WbHgYmxRIhJjaS4t8hIj+84gfNd86/oPnJddc3N/7khhlLhiOnQYMyUBM2mDZEUsL0INOEEA1nrNyjFIkTflwvufgSzZabbzHTTBYECrIlweJaW1IDyVlskUWbq350ZdHFpUGJ1qgC90DslLjR39mxr3315JKnMqIHxAqZmMViWZB766y1dnPTDTfOyDsQLNKL6Q8KyGjjjsaGH91tBEu5ZteMJ8xvIghWTA9DGPIfJuyHl19+ecmbh8lodT0awfIBGD/XYjx0xV2nzd4WZgYgW+wBwdYdr+fEkAeGlyXIC7KDTZ0yoCtjbaK8bE4Htm3A0r5LqjGN6Jao8KB/6KGHRmI+Xe7aw0RdT8B8DzjggEJG6nbntW704I1d91/F8Xg8gLy2Lw4f5WWLNhKoQWbaHO2VvbnorRH9EiwM6UEwXUIbtP7KpY6cEE+ecXY1mppgxXZpWtjIS7snvO0ytk/y8JrypF9gGAdY5rdvDtPwJwUTx54ob5QVg5y8LFfX57AwKZYIn14kfLrz/urBh5p3b7FlIQurrrxKs9YaazZvWHudZoMNNijT8/0WDunRoAlv2mz8ZXM450dBOtzQDinh8E4J047b79BcfeVVzUknnNglWNjcw024lVZYsev2nve5fuMb1i37yJixctZKu5CtMRDltmNybQcnjSP++/AuqcJ2xo38IV2QRQjhVu9+T1maiOnZ0Potz1nFnBKsqQRltp7Gi2CZDv66sfkA7rCArrYjCVZ8Iy4a9W0jWNrWO/sH0c0HoPpEw33DmLamvh6EIc34QEamWP5thjiGiW8SUse4eUU+htUdjfE5YsBTvyk7YfkPE9YP0K0MvtygvLUelJk6HHbYYSUOQO7xkB3EfFjyog542aKWG0O96q/sHIuB3hoxqwSLvbEsqYJB6h7lsg+5rNcPwSJuL4LFOYnIbjqxzDT4UVax7DBcx3DDNuStLL3uqwfjFXUQ+9KwMGlmsGLFAj5N8973bDUTmSkk5tWvLqdtx0G6Ddyr71ugPAB33XXXQrAgIJASzLTXzDgGgX1ZZ595VvPEY48X4T764Y8UksIs0MteOk93XxME5qLvXljIH3KSBn7eU26IzR9+1xkgO2l1lwY1fSJ2Sh/gDNb7fOrTJS/yRhfyQxb9nFH72O57lI9lAwaZ0Tp5W9nNLijzts4WO6PuJFizR7Cim3umO14Eiz8s5FkTLPXUHo1gUWb4e2ggcYzntYNnTJd8h2koW2zy859xPYhHOaOxXtj3Q1nxUEZPdObDwobrFZ8HAvemT59eyijCchsPkJfGa+rKjwxjLK94jW0ZsJwYx52Y3njAsR9wrA7larnH8rdulZuXLkA9XtpXxyJY+vM2qZ95E4PW3xlCjmYhz1klWLU8vJ2HbqYT230sMw3hCGO/IYztYljGJVjrSxPl001Y3IyLtAfH6WFiwgkWiJ0NG8UfvP+B5l2bvbOQg2kd0oMNgYBg8WmauG4cYVo0ZBtzLEg7Bh2HNw84Hd637jj24JCDDm5+fs+9M2aXOiIxk7bxhhsVUuWSorNcLB/yr4SGyHegSMuT3Zkh4xBBHhj8Y+KwtihzL/lrWC4AN/GweVuEqWDKhdkpyBQ2xArZuMaQP288mQ6D3FgNi7Ax3zkBDZmOYGOvG310Q7Asl0HlP55QZst3vJcI6zL1cxzDALrav9jT6GBXyxDtXkuEgLTw920gTP2wMx3yqknOMA35mp82frV+tduHDDM96MsMimW2/fbbdx9cMY4GP9sNLxEQzzKLZT9sxHpSBvPmg8GUR10X1I9t2/vsybFfjJfsIJaZBGSFFVboyqactfHBzZIiiASNtBhHscciWNYtb3mjf12Gg4RESYLVS6aaYDnuKBN+gFPSKSPCo4dlFdsrflzrF9tCDDdME4lkHBeVS7nZNsA1BAsdY50OCxNOsOqGZif86e13lA3bkAX3QzEjBFnxq/l1AVFoNl7u1Z1C2Mh5qwMCAiFiOfD2W2/r3OyE6/xc0nvogQfLmVOQPMkLpAabjfK8tQF4mJIWDxFIIOdy4IZkYfDzY7fK1W8FEy7Kz74ABjc/kYMspWxGlgiRFUO5nX766d0yZlAQpBfTHBaQvW0Qi51PNwe19ks8JyMsz4kiWBruM9ANs35J237GngbyZKCLg7B6avciWKSj7rRp01Kf2H5iWba1q0EbZcf0KvMYpi08f4TQkbatnsygx7C14Z4PeTbWE99+PN4w35g/bkiDsio37a6tDPg6h+MddT/MthkR85IUcX5a3Xa4jnJb9hykCuzTgDS4xh6LYKE/ZcIxG4Qf7Ryw2QVpYSLBQqZe7bUmWD4XrB/qFn+WCEmHvhjLRjd2dMe+H+1hmphnr3y99jwyDhMH6jtMTDqC5dIZm9qXX3a5LrFidmbayEwWy3c2UBsD0OZfB/9S+PilfhRmPUCwH4m3gfjopR2om+7IUt49P7u7yABZIX/c2JCaffeZXtI17uGHHz7jVPVAsJjV0g/DvwLwDL1HEP2jjtoQOjbNkj7pUh7IFGeykI8N9ud8c7ibnPsB5dP2IIydQHfOYPVHsIjXa/DUECY+FAYNdHWA4jBCdPKhVBv1HW0GC91p3yzfxEEzpoNRb+5pCG+ceK8ON15GeZSJDd6Atu1DniXCKHNtSMfyvOiii0p8yxtQVnUZDgNt45Fy8HUEZcWO+tjmLQfevARRh/GG/WHttdfu1lWUXwMhop3hL8GK5QDsq/0QLGyOTCGNYfyBtF7qGaxeY0QkWKAmfdYRz6pat15lpqlnsCba0PawkYdN8di8dUhdDHN8FBO/B2ukUm3AnnkFsYEkQBiYmZnWIQ3O0px2yqklbBxgGLgwhxxySHeJjtmuq6++utyPHUTGLkwHu1voeHXkOOXr3yjkypkijHudjv/il7rpkiYNE/IDqZp//vlnEKCOcRbrwAMPLI05yiKiH+nYyLvl0pErNvx11123O4NF2cTZtaWXXKq566d3FvknGsjc9iCx0Ud3EqzBzGBhSHuYAwi62h7nhGDZvk2L5fo6HibOaGksA8LFsBNtlEeZ2IPF+MAD0IcZM1h1vGiIa7vhBPJYTpad9rDRlg9+nLdUz1jVD1h1+NrXvtaNJ9rGwWGAfkC+jqELLrjgTA/eKL/Xtq2aYCn/7BAs8p6MBMt4pqOu7sGKurWVWXRjbANt4/5EmThWcLQLbWE82t+k2IM1EyAFHXPdj68txAEDiYBAYEN2ysxMJ5hHHjDbxPLepm/bpJAMZ5twr7XWWt3NhQ7iggal8Z5uG9thhxzaTY8N46TJZnfs66+9rshRSCHBO4Yzqdiz5YwS4ZCbQ00NU3TUXQE564pXFqCcbCzmwUw+kE5s9oa96U1v6n6fLcabKCBvEqyZB1/1TYL1NKh3/CkL4xjPATvqTF6cLcSfKfY/YkgfE691j6dRDgx1D5kCkivAZ7nURz1rA6kkzKc+9amRWE9jPB4OIuYV3W9/+9u7slpHtS4SGc6fqv/Yjjdsc/wxVb4ob3Rb9nx6Bp2Nq60uU51gEbcmWNgY/siTBqYew+t65qgEJhbsj0xucOZU3TfG2zgGIBf1ju5+Pszxa5iYFARLRUsFU8cdc/mllxVi4mwRZMWlQvZFSVR4O+/LXzq+hPONOcJjIGXsi/KjljYgOkw9QCFD7UfD++BuH+guCyIPMijXHbfd3pXDPVtcs3+MwzwhPBwxcc1VVxf/p/7YaciEHzGcjUWe5O2/LKG/bowPTG3WktmYj3wYCCaDOOnUukwU0CEJVhIsbAY741lWtlPT4oOxPKxr/WIZohvT/XxYvQ2kbfqTAbGsbN/TRz4vhD7atdsyYM+QH2XnwT6RuqGHdcZRE7Zh5I6yR8KF2XHHHWeq6/HSwzzsCxwyyQM3ylgb5KXsX/CCFxSSEcdS03u2zGChW9uYi5tzsF70ohcV/WJZca3bmeU111yzxLGdT1bEuhwPTJolQuFsEKRkWofUMFsEcWIWCVIDueH7gc5a7bTDjs08L3lplwBJsLqkaORNPtddbQDa8V+VshiOQW2VlVYu6UreIFi437L+m5t7776nyOohosikG4L4znds1tx5x0/L9Z//1GnEJF+ZqH98II72sCUc8hGXf4Ysq/CWovcmE5AzCVYSLOw2giXQHX+Xzuoyioa3gbCvuuqq0lfRczIa9MHEMUb3aaed1v3morrWbonmYostVuo9YrwfFDE/6o7rk046aaYN0Mgb5Y+G5UTreDyh3Nq8MMDhmW0yaihz2h2Hg7IaYFvF1o0uuJ8NBMtxJ+oJeEOeMZmwpFXXrdeUFYe30rZt3/zRR9+2fjGeBnnQkbJRnvFsg5NqiZCKLbNAf/9HWQaEzEzrkCTIFaRGAgXBYsntdYsuVvy4jw2pcr8W14VovfrVzXrrrVceAjYcgDteW+j6Y3jNnTQhdnG5D/vDH/zQDNIUl/tGDCQrntjukQ9xlgsbfyp8tAerAwPy1A0EN/5sgvWVfO8Zb6KBPG0PydhZdSfBmvsIVt1O2asT0zEuxvLy/plnnvmMdlJfTzSQB1PXxQ9+8IPmxS9+8TN0rN1e8+IO6VBe46njaHkxu6OsUWbd1JczH7gfffTRbnmA8RyjJB+sZtSyRpkxzspss802M30YOJaF49SzgWDFPwDA9CBJHCdC2EikNVxbv7Rl6hfY1mN5TRR69Zfxkm1SECw7WrHRu0NMjj7yqEKmIE/YEBvI0zJLLV1mrSQ62NzHcB8/N8NDjPiCOf9CbETk4YMhwgJXFsBX8CFovNlEWspDngfuf0AhSJE8FdlHjGRK/7hPCwLmTJeIA7CyRpmiHwYdMH/+61+6yfjgMt5MwKvNDBnI5IOx7py1OwnW3DuDZb+89dZbuzMMxovLE/GhzYHDtJeYVp3uZEEcV6hndGVsiXrqjtc82Gg/fJYm7uEaZt1GUJ6xTKMe+LPXBjnr9hj1wKZt+LHj8awj5DU/yoyPEtN+MLGc6zLH/vKXvzxT/Ci3ZObZMoMVdbOOsfneZ4zTZuiTHIFw9tlnl3R4Vjk2TCZQ/9ZnTSqHhUm3RFge+h2CddznPl/IEqSGWSTc2Ow5wo2ZFmeqOvcI66wXp6uffNJXZyTZycN8bDxtiLLQQPheGG8B+rYepG2RhRYu+ZQ3GasZqu5slnabu2MkXffd+/NytMNjjz3Wufk0sapl5JqjJFgGPPnkk5ubb7656w/+8ren92/phz1T2eJsM0MG5ZgEKwkW9lgEC+DPsr5xokGn6E/f5NiSqKfpTBagT5TJMsPf7y5GnXC36U6ZME6QViyr8UAsX/NUD2Z5oszasc/rXmqppUr88ZJbSMK/+tWvlm9JtpVvNBIsj5agvGuZn00EC5liG4368sYdZLTXGOafHa75JBQYL/LSD2ynUb/xbH8TP4OFriMmzgIdc9TRhdREEoXBDcHRTwKGzewSJGi7bbYtxzwUQtOBDY+Cbess8dqKYFBhBuvYY48tJ8e/4x3vaFZZZZXyr5PBjsMVAXFHq7B4rwxUXHbMJRd/r3nrm99S9Pjkxz9R/JzlKoRtBMqz/npvKuQRXSGPHIwKOWPpgEbkw5nwxtGeSCBbHGw1cZDTnQSrP4JFvDh4xrLUECY+GAcNdHXwmhOCFevZ9srBnD7kiBvbj2mhP26+pk8aMR1AWrXf7CDKGdOzz1HGsZzjwyX2P+LGfsk1YwttQ50wPrDUEdswX/ziF0t8YNlHmYSytt2rYTogphnjRz3qNnXBBRcU2dQhyo+71ocXc2I5APO1XPqRW9RpgdrP8Z/DmW1L2sgd2xftjms+A8S2C9OoZbKvzgrBIq3JRrCIW8tketgcEMusH+FjXWLQWz/cTET4UfJe5Qa45/2xYHzC645t1nTwo23GdI1jvChLTG+YmHCC1SVVI7M7uHkzkLf3JFA1wdJ4Pa1DwnCzJ+vEr5xQ3tZzeS4WeESsDCsH4Ke/FUBnouFwsu0Pf/jD5sILL+zueYoV2Atx0P3Tk39sDthv//KZHXVacP4FZhzjMDK7VcvNEqdLpZAs4vDpHpYt99tvv27+6BAHyckA5IkDWOyctTsJ1uzNYMWy1JC2cgwD6Gpbm9MZrNjWuceewjoNTNTZgX3ppZee6QER+3UbyDfm3Q9i/0U+9RbkRxjTxY5lb/h4H9x///2lzKiruo3EPqOubCRm3DE99SSvOu3ZQYxrHjEv7+PWH3kWHDlXqpZdG93UYdFFFy3x6lkO05sdmBZpYGL90zaQ+4QTTpip3+mOfQcZfYHi+OOPL/3RtOpynR2ChWxTjWBxj31rpOWfHm1NrHtftqJOKDvLD7suw34R48X0hHWhX+yLIl7PSVubVUyeTe7o3zHsTXry938oMzTTOsSpJli1YcaKcG/baOPmphtu7BK27v6oDkYr0LZKx09/Oy+VFyvVAbQtfg3TYNbLs7rYtA9Bws2s1BvWXqds3q/lJh+WBz2l3XgslXLtv9q6UY1nIxoNyBE7oCYObLqTYM2dBKuua9oAs8SUG3HjAxFjuem39957dx8ugPTqNAcBytO+fPfdd5dzoM4///xyXfe3tv4X5fK+p6FrJCLaGMsAN7MwwHTa9MTP9Nvu16jbifWDYcwzDf3rtDlAGfnig1f5Y73p/+EPf7jEqwlM24NxLBg+js2C9Ll/zz33lG9cIkuvNorsysxb2fU2jFquuYVgAdo4Olq/1qm25UYbYLM7f5AoN9uV7QVQx173Oz7F+MpE+hjvsfzLFxN481Fw3/DAvgus12Fj0mxy9wR3yBEfWF5v3TcWAhHJFUREox9E4/PHfq7ELcSkE/8vT3UaP+X6dNkWWBkUOpWLHQu6rnDDRKN/v4jxeOCqkxvxcbuB/v277Po0QRyJAzhDBp3ruEu8bvFy0jB62XjQR51iGhMFZPPhEI2dM7qTYM2dBAtEP+yDDjpopjTqwR3DwI6e5MugrjyWI+nU+USMdk9EmUyfb4GutNJKJX/O42KvpvcIZ/+L5R/HGUGfZTZcfdAl6sd1Xc9c8/F2+zn5KWPMT3nGQptcgJmpc845p7h7tSPjMrvPIZPIWD/U47XtHT/eFkXG2SFVEW1xqX9l5i1ASCn5SgScNcRNmeqPXPhD2ImPfKZf5zO3ECzKgbbAkinl9NznPrfEtZ3GOsXGrLjiit3jLSin2B9FrzY1GkxHkB5tkLb0H//xHyVvxlJWmYDtK4Lw9g3tYWJSEKxY8BCMhx/6VdlnBIGSVPQiWLg32fht5a1Dz5ySqEmwHIiAhRrz7OUW+EX/SGb6hWE/8P7dyoybM2/YkCv1OvP0M0oZkIeNgTVwwzODhc2S4Xvfs1V3yUD5oqxR5okCstkJo4kPEt1JsOY+gtXWh7j3+OOPl3/D6NnWfmrD5uXvfOc7XZnU3XwA7vq6H8RwDz/8cPlagvlaD3wOx1f663JHJuUCutGd9g5ZQ8dYp9HYfmK7gWRFuUhL/Ui/rVzbEOUiDuMOMjGzxgP105/+dLkXdTDtmAeEmPDIFgmLOkQDWYaYMuugzIKyq/PpF7Xev/3tb5vNN9+85Iksyse1ZRlt7jF7xd5bQHrKFmUEcwvBsi4gMVFP3HXZYVv3HDzKQcCx3GJ5Wk9cj2YMpxzalj+za5wYH8ufA2KPOOKIch+QhvEEaY8HJs0MFgVQiEtHb2awVlhu+UI8+lkilJxgOBj00IMPaX589TXNbx9/oqRtJYFYaaIufGC4eM9KB3UavWB8w3N21mqrrFpmrTzbS/KEPisuv0I5QFXwz7x803CEhBHe/Vj/dehhJQyDEulHmcarAY0F9HdQi8bOGd1JsOY+giW8juk6i+W/5mgsOwd0rjm4kwGXNGJ6Ivr3C/9MUTfsmVpuueW6eVsHysAH2P32ab1kGe26r5577rnP0AdDuemvraFMIFkgpiXIqx4P2oz3LPMnn3yyvN0Yy5VP9RDG9AwraGd8joxlOOJRLrFNOvtIWqaLDclirxNpW87CPJSzlwH2G6+xIcK81Rbz161sbX2I7z6ij0dimGYN83w2EyxAnSM3S2/+sWCfmuVFnca2Sb1i8ONw2Z///OclPcq0bjd1nbehbsPAce2UU04pZMq8yVO5sDfZZJPuG/rA+KSpGTYmzx6sADr5XnvtVQasaR3iEQkWbg3XEg/CsU+Ja5bQ2AS+1BJLNttuu23z3e9+t/t2Q4QVRcX3agT1tZVi3H4QGywE8qofXVlkVAds5EYHrjnni31ozMTtvWenHDp+kDDDoy+b5C/49vmlkcYHc8xrPBrQWKD8YgfU2BGiOwnW3EuwYlulHAjDDAQfTScu+kadMT6sY/uCePDWL19hIA/6R8yrzhfg18sAZONtXeqpzjfWJYZ7nPcU41pObfVhPhtssEE3Hew2Q16YGOatb31rc9ttT/8hA4yfwHLuZaJsgGMJOEoh6mR+++67b5GfeMD6ws80eENQuagr40Z5dXuPcDvssENZUjIdbPMayxAWWZSHWUS+2sGfUtKnPsjL/KJ80c09lsHiWWOAPNowtxAs3F5DaOzjlqtlWuelP3spzzjjjBIfUAZ1nxwLhLfv4MYcddRRZdaaPOIfMOQyb9y8VMGhvsA82/rhsDBpCBbK20kAgwbfJZvWIR2QD4gFBjcmEizIh278uWaWBz8qmKMVNtpoo5KuhUwljYa6ErxGRtPop5GoE3YZQIjSMcyyIR/6eUo8hu8XQqC+euJJZU+ZS6WEw1/9Obbh/l88/fmMkvYI6rKcSCBXHNg0dM7anQRr7iNYsZ7rNsu9008/vcRFH9NxcNe/9sNAFDjp/fe///1Mfd1+iKF8dGO4hyFf5aK8IRemjV3nFds3/lyzNOXDmrRF1FE392+//fby3TfSIP0462K6MU/ctgH+xSMjJ6tzLhiI+YwGZOT7fLvsskvJ17SjbdlDJkBdRkAd99lnnxLWtDSmYZq1P8vBLOvceeedZQyIaY8GwzFjdfnll5dZC9Kt84/XurF1s4fsmmuuKWmhi32nlxxzC8ECyG0f4ggV9K1nBXVzz/5A/tY38SjfSGDJh7RHM/Vz+ic/+Ul5lre1p3gd8/73f//38jIY7dZ+Qd61nsPAhBMslawVpgHzD/Zzn/tc2eS95uprlEM+IU7TRkiJbgzEKn7OxhkfCdYxxxwz06BD5Qk7i/lzjw6moQEaPsYzPf2IHytRxGs34rOpf8O3blDIEvJDnjDIj73sMq8vH7F+/dLLzESw0Am9d//IRzsJP/2Qm6xAPjtcNHXHwH62EqxexMNymVWCRbzn9Bg8NYRRjmEAXW17g5jBagNhGGB33nnnEt/0HVxNvzaUjWXL/ib2+nDECvsVI+r6AshGPfAWGZvX2ZNDOjXhqY35IRduZt9vueWWkVT7w6mnntpNhwe/OtY2xjIwP/xe+MIXNltvvXVz1llnlRk3Ptb7wAMPlNk89GK5hJl83qpjIzAzEu9973u7JCPqqJ9u8+BYGGCZWYa2BT6XwmwccvEgN56ymi5u0ydf/dlPw8OYPT8styIre3n8DAszVFzTD/gTftlllxWSs8IKK8zUPqL8GPNTDty0E8KR/3HHHVfSp+7r8RvU7dW+OisEi3THi2AhU68xYlYJFnJb3/QjZ3IpN8sylnddx9oYZIMI0zaZabWsSd988Ytu/jQQh6+yeIxGbKsx/fraNvG+972v/NkCttVaz2FgUi0RRoVxy14p/Ad+eX/zzbPObvb8xCebd2z69mbpJZfqzuZIUiRchVh1DMSEfyYcgFZ/FR1Q0LGwuW/l6g+Uy4bIPdPinvcj4gBkmiVc51feFOyQo5tvvKmcgaW8zsShAzbkivuSRWz2buE+4ctfKWlFOScjkM9BNprYCXQnwZq9Gaw2Q9rKMQygq21vmAQLsL9ntdVWK2nUD7LYjuqHqmEpK/LedNNNywPxG9/4RnPFFVcUuSFS/CtmWYm9UJyXBEnxrTjj1w9tB/iYP/pz/fKXv7wQnH7hWEK57LnnniWv+ADBxPyxbTve82GnPM9//vML6WDfDISHhykP+bXXXru85WU6pumDq9Yzukmb+xDeuOXC8c3xGlLH+WSEj3VgOhj1M33CUn7xmqWfxRdfvHxLFsMDli0ftIV11123LB8jjzorn4breA8bU8vizFx84IPortvr7BAs6neqEaxYBs4+cbhv/Tmr2pgH9UkY+wb1gh8vbtGOOGyXY4jojxj+lPARd5b1+PQOs5rUNe2FuKaJXV9r9Fd/+r0voNBGhzku1ph0BKutIWO6/h3rd0/8tpyEftQRRza77LRzWUab1iEl7GvCQE4gIvhBrlZeeeWZBvXYaIADhP4MjnyS5vOf/3z5Z8M/S6auvV/LKLhvGDugFYqhA5Q3BJ/6c/coia985Stlhs2lQWSGQPm2IH4QSMiV1+ustXb337H5TVZQ7jb4aGLH1J0EKwlWDXQgLDMZzibx4O31QIttjXwlHvj7UOeaZQMMAz0PagiJ8ZW3Ji0+LMwj5qXuvC7OAwj0oyP6WY7Wl5uz0ZF6rh8g0XBPubgmvG1DP+3oJozyx/RjWP31I7wbnFlZiO1VXcsY1xmTbrrppmfM/pleLLc2g96SLcP2KgfS9h5ho/wa/bB1kwfhIRmg7ivWiajrUt2f7QQLxLIwLN9ptNzr+tW05U+YNtl4QeVlL3tZs8QSS5TlYvpmjIOxzup8DINte7E/rrXWWoXwU7/9jK+DxqRZIhT1NZBEUEgsrXUP4yRox9x2y63N10/+WjP90/t0Pykj0WKJkP0JsZFQ0OSDIW3vwdCZAucfHlP8fMi0bLTvkDT++TGo+C+nHlzwq2X3Hx1QB2XW4L/bbrt1Z+JcBsRGfmx08Rri+O4ttiSlUh5t5TWZQNna6KNxoIvuJFhJsNpgm7juuuvKzFLMC3ccdM0LWzf3LGsGaQz3KMPYNgmHwR9j2tyL4WIehHeTLfp58Cj9utvn+wBhLU/eVoRkkSdGokce5Kc7GuXjvuGVzTTQW51NB9s0Yv2ZHmHMj/uEZ3bKGTrq0bpUX8c99nYxi1anbXrR1u111Ie4UQfc6mKcsYzpEQ+bdKdPn95ti8het8lYf/W9uYVg4Y7XjCmWGbNLpBPbEMay1u11dNu/eJM0lp1pEY76pu576VHrSBz8iMc15OpXv/pVdxyM9TnMsTFiUs1g1bBirWQq1kJiJshv93XN3/9RTkP/3kUXN8ce89lmm/fNmOrnAQCIGwu5YCTeY488Wg76lJyxNKeB8GAgOJC4mGdsfMIBhj0ETIN+4AMfKKcX89o5h6LyIevTTz2tufzSy8rp7uw3WO71y5ZZKvI2Pwykizcip43MbGEOO+TQbnm05T+ZgIx2qmjoCLU7CVYSrF4gPP2K175XXXXVkh4Dcz24Sy7MM7Y9/b1HXAd6rnGjg9e1reHa8pdcsameD+OCfupR1IO/YwcPSx6A5ukSngYZkD/qX8up7rGtxPKIDzP9MKZjPMKZP8s1breox1Ku1d1+LFkkLvm0PUzbrtVPd/TX7TXpYupw+tkm8MfNywQnnXRSkU/E9ohbI6IbzC0EC1Cv0c9+D0477bTmec97XskL2zws/9odjfWLHcNwHcNbvr3asdexvbK3kJkrEPWzjECt5zAwafdgiboTE6b4dUhRITh/63T0DtniEztlVmvEH/Obh39d3lyggGOjID4DG2kRj7AHHXBgITEQGkjMPC95aXdGyb1dkq9Tv3FKyYd8o8w2RPPjzYX55puvvDLMTBg26bhBH1IFqeBsncUXe13JD5LFffIhb4zECjd7z664fAZhnJWBfKJAObR1LjpN7U6ClQSrDeaDPvQxXunfbrvtZmpDDtaaus3FQZt4MW6vsiR8DBvjY/ug4kPwED+grKAeu3rBsjCu8dCXP18smZAP5YsMbfJGfTC9dMXE+PE+dkyf60gcttxyy+7eq1h/vdotZJFw2Mx2SEZNM8oV3Rjl19QyRr9o8NPoR3gf4nywn+MoALJR1pa3OrXVW9QXzC0ES3f9DPWPAOB4DmcqSTv2xbpfYqwb7kUZracYrm6rtdu24KwV9mGHHdYtC2Su61M96jodBiYFwULR2kRwHSu3gCCQqUCoMMxqsb+pu4TYQSxgGobX2JCkn1x3fbPSCit29zlBfnBLtnw70dmst2+yafPQAw+W9JGrllsbgjXvvPMWksUyY1l2DHmQJuvO3GcfFoZ7GGatuO+sFuQKfzZ7kj6ym89kBuVTD5aYts6SBCsJVo1aBx/apMH+RfqPZdHWzqJBjhjGh26v6+j22jSw2W/FXhQGc/pjfOhYNv2AsMZtK5e77rqrPKCjLG31r1y1Pwb/0dpM/SAkLdOjjHkTE1Af6uY4qszqgL/1Fsvl+uuvb9ZZZ51u2nW+texc6xfvxbj4Y6Ob/jGcOvPgPfTQQ8sbacpLf1MHEN11/dX1MrcQLBDLgjKynLAtB2YqWaUhXevE/KgH64rreE+DrN7H4CYedvTHmJ7hdEuekYs2h9xR9tg/+xlrB4FJtwerRiwgwnJd4hCtMnFflm4LkkKPeeEuBd7xYv+WJAZSA6Fy9gqCAxnCj2v8F1pgwea6H1/bncGKMuK2cnkjiT1gCy64YHm4lJmsEdLkrBTEi71e3COM96d1yJTycE2+uDmvBgyjow4DlEM98NkxancSrCRYvUD4OLCL++67ryzDOztCXuZn+bYN6NHP8Jq6vfrvOBoeJuzvAMgTZbJcZhUxDctHP/Z+0p6Y7VaG+JDRTxP9YlvB33joGXVtu+bIBF7wAcgUDVA+r4XXMRxu2jjHSPBn0nzMK8rcphNy61/bGq5rP5YoIankb9tTLhDLHVh/MUx0A/vq3ECwBONJ2z39uM+bgHwmxzqIdRHbq+0s3tfEeh7N3zTmmWee8mYwfQRZ6voEs9sn5xSTeg/WIBAbRO0uBOvv/yj7qiA0EBjIFGSGGSTsSLQI4zLhd86/oJPI0wNHrFgrkw3zzFrxlhJES8Pg4rIhaUqkNBAv/KKtbJDBki/kDhI5ycFAZMeKxo4S7/EGieR0KgF5Y6d28JVgoaN6xgFCN29b0X7UW7tur+TBGUAMnG0DUDTkN0wSbpsHDKrmGx/QtWEmBB0sn1hmswvT4C1DiBaDbcwzylM/xPUbLUx002/32GOPLuEYj3ZqHpJl+gcHqK6++upd2Wobox7xnrrq7z2NbZQ3ujh7kJcKBgXbt/pwNhdvW3IMA3lGMoAcymbdKL9u79c2hvhsnmYZ+e67754xzncQ29uctD3iYtBp+vTp3XLTKIvyYvj8EJAEAfvPnMJ06Fe4IcXkGeWK5aN7991379bJ7JZH1CGWC594Y7WFemgrD/2iXNzvNbZ5z2t0488Gb/vzGR9Avsrg9UQjCVaHYPGhaIgUxImZKo5IwI0NsZFcEcaZJ46JgOjYeYUVjPnQhz5UlgjL0uCrXlU23EOwIFe48TNtiRVGP9ySPAyHjz7x2OMzzdRNBbCUwiGIHCLI+SnYvBaPPzZ7THCvscYa3YfvZOgc/cAHBohu2gXnKrHxk021GE7cRk/clAd6s3mYwzCBp3ADB4kazGAx2FCGxH/JS15SHogQC9LHH5s8hgnqxzriRQ0GPwgIepE/8iCD+lLv/NEAg65byt00OUyT79tx9hOf0uB17zgwaxjEHfDbBn4GcOLTd9l7dM455xRSAMhrmLODNeIYE8kpb+nxPcLFFlustLN6k3GbO/ph0JPZP+qN5Tu2NdDGwKDqKabj2AgsQz6uzKfRmOmnvpwxlCD00kU3MzLoQH9AB2YzODsNmAd5xjrr1b/6AfoQH/vwww8vMjCW086RgbK0j2NoX5Ae4vCnx3FiTmQQ6kSapI1MrHJQJowN9kGMsiErMjMBgAyaOUEc+wRp8oUCPhjOdyoZ65nlpj9SJtSftnUajf2WNkEY4vMyCWfFsRSIrvYH8leHOdVlkHjWE6xeoHJK4+z0fd7og1A5S8TslXukJFXMJOHGD6Jz0w03llmkujJt8KTPN8loWPzbZNqU4x9oIPxrwzCgLLrwIiVvZ8lIH3JFXtgYPwx9wH77F3m7G/oHM/4NFZQPZREfgpaRNmFiOepu67STEeqlrfxcx4ej90GME/XnWr31877XgHCYtrK0rGP4YYA8gLLFGbN4D8S6RNZB1W3MxzQtc45d4QToL3zhCzO+BtHpg3ybjD89LM3zRwc3M4jYzKBuvPHGzcc+9rGy54g9Q6RLHpan+Y0XyJPyshwjkEWdOUiRN7ogKpxajZ7s7Vx44YXLnzr0ZSkakoubMYlvALLExQykBzFGDKqOQEzL8tStjZ6QO/a17brrrmVpzxUADHWkjX7owNtivJ3Nie7mYVmZNoh5grby7BemhTFPZDd9/WJ+urXnJP8adb6OBVybT5SpllkzOzAt8olp1LIAXk4577zzSpvjU1Ieh0Q75Tw6+qH9kna77LLLlnAHHHBAmbV1Sd58Yn5teU8GzNUEi4qAqHBEw1vWf3MhOZAdiRSzWRhntth7BeHZdeddmj/+4clOIiOJjSBWbOxAuLnHRkCmrFnOuOSSS8p31s4759zm+C9+qfnUXns3++37meZju+/RvG2jjZuNNtiwmNVWWbWc7fVfhx7WSaiTIXlGM8lhw7cDUg6WDbZlE69jZ5nsaJMVfeIgBwinbpZD1BtIDOKgFGFeMV50O2Ca3nhAmUSUIZYBuinroFGny3X0Q5axyiTqgdv42LWOtX7jDfKO8gH141q5kDPKHuOBqEMMq36DQEwzlpeymE/Mzzi1rIbBv+4rxKl1B1zrnl20xY9+yBJlwygPtn88jINNeO7PKWKaEXW9Wn64ydfym1OotzCfCGQZKz/lrKGfZUXaliuo045p1HJMBOZaggWoDI9pOOmEEwt5irNWfpaGa8gVBGypJZZsfnjFDzq112m0f51R6U5TAhs24B+06+JtlV37ES42ENyPP/54cROW6zhgDKKDjhdqWb1Wpxr4TyX9kJc6aqtTEd0iDg51fMKbbo1YNm1la9zxgPVnflEP7CiHD6M2nWYX6k/aus0TWxmw6Y/sg8HGIDs2D0Fs5SN81KtOb7wQ81Iu4T3sOC5wrX4a7uNP+Xgton5gkDrWafcCcpGnulAPGNzIq5v7yocf7qhLrP9ah9qvvt+GsWQnP/M3b23S1w36yW9WQZrIqJy98lNGbctzECAd84rlFeUSyGfd2g5x2/+4jx/XGOLHtAmru047YhhlPTuYqwlWAXXUIUsQrc8efUx3UzmkymVBlu6YxVp4wYXKjFOcQWqryNjIgdc0HN00JkCDoaHEr4y7EdLGZMOLMP5UQ1tHBF7X9mRHm7wMDNRXvzrUbYh4bYNfrPOYdpsMoN/85wRRdtyj5dnWVwaBOk/yieXPdXwICO/H+HW5x3t1/PHsg8gR83c8cIwQhNEvhid+bQBhMFyTZowzKNRjl4jjYQ3l0xZtY2GbnrqF/tGvH/Qb3nbTq/xinWB66T07aNMzwryUrZeMs4OYlrqBWoY2uUA/5UCabXFBr3uDLN85wVxJsGaqEGeiWH7rmG+d/c1mq3e/p1lmqaXLrBWkim8dbr/tds3VV17VidzpTCOf6yl7oUbSihVtI6NT6Y7Qz0ZAPEx8CHCN245pGN2gLe3Jiros1BfUg1M9IEwVWC+joa7HeK2+8T5+bYOFYSg73QC35TleqOUGtV9s6yK6ZxemQX64ySfqr7/ArV80Ivq1lTsgvvoNG8gR84oy6a+N3rrVifC9ZDVMREyz7f6sIqaB2/EsgrwiARHIThxNDe8DbMsmhm2L2+Y3OyCNtjz1w9bdqw7mFHU9tckB2vSt/yAQpi3cWECGWj/7YC8ZcMd7dRqx7IR+phPTI24dvpZpIpAEC+eIcfP4bx9/opxzdfGFFzWXXXJpc/2113U3lf/5T0/NCA8hww6oG0hEPeiLmWQZAX514wH61/cnM+pG3kt+w9XlNhWgLr3qP+rapjswbm2LmEfb4AXqdMejLM3TvJBPP+wo9zAQdY75gbby6SVHlBsYrk5TtPkNC3VebbLW19EWhIl+xunVVgcF5YtpS6jM23u1fNHfe/i1jacxbnSLmD+or2cVveK3tTuhe07z7oVe6cayi6hlmx25jINtvYyVTowj2uIgd1tdjlbG9b2JRC4RVqCieplEIpFIJBKJfpAEq0IbsdIkEolEIpFI9IMkWBXaiBUmkUgkEolEol8kwWpBEqtEIpFIJBJzgiRYiUQikUgkEgNGEqxEIpFIJBKJASMJViKRSCQSicSAkQQrkUgkEolEYsBIgpVIJBKJRCIxYCTBSiQSiUQikRgwkmAlEolEIpFIDBhJsBKJRCKRSCQGjCRYiUQikUgkEgNGEqxEIpFIJBKJASMJViKRSCQSicSAkQQrkUgkEolEYsBIgpVIJBKJRCIxYCTBSiQSiUQikRgwkmAlEolEIpFIDBhJsBKJRCKRSCQGjCRYiUQikUgkEgNGEqxEIpFIJBKJASMJViKRSCQSicSAkQQrkUgkEolEYsBIgpVIJBKJRCIxYCTBSiQSiUQikRgwkmAlEolEIpFIDBhJsBKJRCKRSCQGiqb5/3TGpPKtJVlZAAAAAElFTkSuQmCC;" vertex="1" parent="1">
          <mxGeometry x="-605" y="307.5" width="102.19" height="27.93" as="geometry" />
        </mxCell>
        <mxCell id="deXuY3BzBvGcL0YWFa3F-10" style="edgeStyle=orthogonalEdgeStyle;rounded=0;orthogonalLoop=1;jettySize=auto;html=1;entryX=0;entryY=0;entryDx=0;entryDy=0;" edge="1" parent="1" target="deXuY3BzBvGcL0YWFa3F-9">
          <mxGeometry relative="1" as="geometry">
            <mxPoint x="-605" y="197.5" as="sourcePoint" />
            <Array as="points">
              <mxPoint x="-605" y="207.5" />
              <mxPoint x="-605" y="207.5" />
            </Array>
          </mxGeometry>
        </mxCell>
        <mxCell id="deXuY3BzBvGcL0YWFa3F-11" style="edgeStyle=orthogonalEdgeStyle;rounded=0;orthogonalLoop=1;jettySize=auto;html=1;" edge="1" parent="1">
          <mxGeometry relative="1" as="geometry">
            <mxPoint x="-505" y="197.5" as="sourcePoint" />
            <mxPoint x="-505" y="307.5" as="targetPoint" />
            <Array as="points">
              <mxPoint x="-505" y="300.5" />
              <mxPoint x="-505" y="300.5" />
            </Array>
          </mxGeometry>
        </mxCell>
        <mxCell id="deXuY3BzBvGcL0YWFa3F-19" style="edgeStyle=orthogonalEdgeStyle;rounded=0;orthogonalLoop=1;jettySize=auto;html=1;" edge="1" parent="1" source="deXuY3BzBvGcL0YWFa3F-12">
          <mxGeometry relative="1" as="geometry">
            <mxPoint x="-192.5" y="187.5" as="targetPoint" />
          </mxGeometry>
        </mxCell>
        <mxCell id="deXuY3BzBvGcL0YWFa3F-12" value="" style="shape=image;verticalLabelPosition=bottom;labelBackgroundColor=default;verticalAlign=top;aspect=fixed;imageAspect=0;image=data:image/png,iVBORw0KGgoAAAANSUhEUgAAAOEAAADhCAYAAAA+s9J6AAAAAXNSR0IArs4c6QAAAARnQU1BAACxjwv8YQUAAAAJcEhZcwAADsMAAA7DAcdvqGQAAA7ZSURBVHhe7dwhryTV1ofx+xVwJEgcIUEiSNAYPgB4FAaJxJIg8TgMCRKDQWDRoEj4AAgSEhJM3/cZZucu1vuvruo+fdacc+ZZyS/MrK6urq7aa+9du3r4z//FSdILFZOS5sSkpDkxKWlOTEqaE5OS5sSkpDkxKWlOTEqaE5OS5sSkpDkxKWlOTEqaE5OS5sSkpDkxKWlOTEqaE5OS5sSkpDkxKWlOTEqaE5OS5sSkpDkxKWlOTEqaE5OS5sSkpDkxKWlOTEqaE5OS5sSkpDkxKWlOTEqaE5OS5sSkpDkxKWlOTEqaE5OS5sSkpDkxKWlOTEqaE5OS5sSkpDkxKWlOTEqaE5OS5sSkpDkxKWlOTEqaE5OS5sSkpDkxKWlOTEqaE5OS5sSkpDkxKWlOTEqaE5OS5sSkpDkxKWlOTEqaE5OS5sSkpDkxKWlOTEqaE5OS5sSkpDkxKWlOTEqaE5OS5sSkpDkxKWlOTEqaE5OS5sSkpDkxKWlOTEqaE5OS5sSkpDkxKWlOTEqaE5OS5sSkpDkxKWlOTEqaE5OS5sSkpDkxKWlOTEqaE5MvzBtvvHH68MMPn3nvvffiNtITE5Oj3n///dN33313+uOPP049/v7779PPP/98+uyzz+J7pScgJke89dZbp59++ul5ue3Hn3/+efrkk0/ivqRHLCbv3UcffXT666+/npfX/+L3338//frrr8/89ttvz7P/DkbNtE/pkYrJe0UB9vjxxx9PH3zwwenVV1/917Zvv/326csvv/x/Bcv2X3311en7779/9udvv/329MUXX5zefffdf71fegRi8t68/vrrz8von2CKyT1h2rY7OnVlBP3000/jPqQHKCbvDYssK5h6UpRpu4ptGOkuDYr2zTffjPuUHpCYvBc8dqjB9DNtVzEVZbTsQTEzHWWh5uOPP342FWVaympqDVZcnaLqgYvJe1Gnk3uLKxRsWphhH+eK6rXXXjt9/fXXz7f+JyjitK30QMTkzTBS/fLLL8/L4X+x9SD+nXfeifd+FCSFmd6TMMrWUZGRM20nPQAxeWesatb7vxpMEfv2rIr2EYxgFGOq2bc/oq/C3nqxhlGXRSU+Z02L6SjoSNL20oaYvBMaZnoGuKKPSjy0Z5GmB4sx/ZFFdaSovvnmm+d7Oz179pi2uRS/3uE7pF/4EIzAfB+O3/vR22KGw6xoPUtez5MvXYBjraHv5wjegx9++CHu90oxeTVGgb44wv0fo8QKFlDqez7//PPnr/wTNPBzjZciWEXOSHnuJ22MVvV47vJ7VEa8rcI7FzzLTPvT5WhLKVikS9tvuWa1vQaFmPZ7pZi8Gge3gsZPwyVPD7Ziqwhp4BRrfa1avWAKeqmt54183go+K22zJ02VLwm+G1P0tG8d88orr8QZE0E+vWfLXYuQ9pb2e6WYvApDfI26kFIfT/Qi5J6P2Briaby1kBgFKYo0KjHq8C8x6vvrcV3zkzd62a3g4rOQxLFzjGkRagXHe+S5qLI6m0px5JHXstoP169K0bfj71zztN8rxeRValHQ8Otr50bCVYQ9D05WnU5SRKsh0zOmEYrt6+czXV1x6cmrx12DEXmN8h33uFsj540v3kuFjq5Gn5py/5/el9B2WG+oyPdCpMNnENja/kZi8mK1l6IY++uXFiGLLvUhPSdj6z6RkY/39uCEUii1CFOhn5Omv0cLaavnPjfl1rYatA0KoS4Acr3T+y6RirDPrO5BTF6s9kqMAv31I0VIT8fCSZ3S1dGVE3TunzJRcMzVe9QTe0lvWafQK7j49Ipp+6RP0Ylrn1nSGDiPfE/+e9d7TGYU3EfzPcGfWchK216KAqn7vus/0K4dKbEWu/pjsK3ZyVGPugjryeCk99ePFGEtOKaUa8WLC1BPDiPRuYvK4ksdRWtc8u8R0817n2bvoWDr91rRt6PxMOrWpfC10MS54zv370QD4bxf+vyTkTjtj+BYeW2vMVME63j57yoKipgOuTdmghzXuu/riF5sazbRV9bvuhL9qIuwHnzqoY8U4QpGxPTF+30WRdK3WWj8qYhSB7ElTUWvuRegYfToU9I0daUI+7nZiqNT5N6Yz8XWQhn6AhR/55xvdX41jh7rwojdY73G/XcNOu/63ks96iKsDfbaIuQErN5/CxekNiRO+rnHDuyvNgz+fGQ6mUYw3pu23dN7a6I/10pFeG5VNgXnpe6z6w2M4PzxvcCfe2ztsxczf6e4jsa5DrTrU/refvotyF1+GfWoi7BelDSVYQRace6esOa3rPuD2mjoBLZGOXrLuu2RxxTpRwd8Rtp2D42iR2+EvQj7Z3N+mQnQIDl/tWOpsTXd4z09uD+ui138Oc0e0oPwXoQc7zpmGi6FweiYpuIruC59v8lekfUivXSkrR51Ee4tzBwpwp7fskYWGgwFyYlawT7ST5i4F6yxtwBBg+yFQKNK2+5Jo9xeEa7gGHitbguOPxVWGq2ZDfRIhbWkEbhv04twBYVdn4UyfU+LU8S5Y1i496/B+ehFwd97XLvA9KiLkNFvBQfeX6fXq8XCfdI6UXcpwpXrPXia1taGs7fA8lCKcG8hKU0x+3v6ueE99fWkXiuiT/lTEZ5bFEnPTY9c7/6+rVGu379vzQj2POoiRP0CqZejh+wPXCmGWxQh6o+102hcp4V7BXXLIuyjMHGkCJmG1W2SvnRP9HPfp3NHznO/Tv14UxGeu59nnaCfzyPfrxcF3zdt10fvI/tOHn0RrmIiOOFb92jkadArVq976T3hpUVIYa3gXqW/Xj2EIkzfoUsrh7XImA72+7L+2Qnb1KDo6uu9CPmMvSlgH1337rHrYh7B9dh6NtqnrcQ1zyYffRGi9rqctHPPmxiZ6oXhBOz9WzxWLdcq3KVFSCNZDZLPrfcu3UOYjvYpYML56FGnbDSg3vi5RpwrjiHhtT569u/ei5Brt7fq3BeT9oqw/yxt7/z3KemRe87uSRRh6pnr/V/S5/2c/LR9v8GnwdTX94qwPnbYK8Jbro5eOxLeqgj797gm9kbC+yjCHnvno09Jr7leT6IIabwpaAjnFkOYZjCNWsGXX9vTiOvJWYV0aRHW+xL20V+vasGuSCuPR6x72Bq9l37oRdjvse67CNP5oH3QQdOp89/15/X3NUOqsffcuXsSRVgXCvpJJ/iSnOD0Xqyfb62oJ4X9MYVdjfrSIqwX9siNez2OFXsNLaGB9OgrmJNFyPeqDXgP9+q907jvIqwd8l2C75n2v+VJFGFdnKFIuLnuX4ygoWzdZKMXAAW2Xru2COuFPXK/kIrnmqXv9P17g01FeOQYmbb3qEXIlJuGVKOey2vdZxGymHSL0ZtgP+kztjy5IqyFQD6NjBRS/T0m29ULQOH0h+/XFGF/YH2uA1jqs88Ve9PYrp6PFf3+CqkI03Zd+jVO/+69Q+Oc1tevcZ9FuK7v0dgr2HMzr+5JFGE9gf1i02tTOD1o2Nz/1RU5LtDWyuo1jyjqyb2kEfYGTBx9P7OA1ED6z66QipDYesyz9FVMou+f463BuaivJxTU1jM53GcR9n2zHavVPHLYw5pEH/kvud5Pogjr6LF1kjlZ6SaaoNGeuxdiBFsX6UgRMsrWhsr+L/k/c6XRkOAYzt3095XcFbwvbb9VhDRcGmB6D/drPfh+vRjS6uzeVHedY65hGkl6odyqCNPCXu9Q9/TbiHROtqQiTNvdWEzeSe39Kbi0Dbi49Uvv3UT3UXSvCBkR+oXvCyJH1P324PgpBo6F49/qXAgu6NY0eKsIV9CbU9h0UHxWX7ldsVVc9ccRKzje+iNq7h/5jH7O+HvdF+6rCFPndekKZ/2d8oo+qtM+uB4c07J1Tus24H1bnemVYvJO6k+e6iLBFk7QVm8PGh5fvEfvoXuR9jg3vdqTFmkuCS7eXofUo08j9+Lcii+jP8eQgk4znV+C11IR3FcRkquRtjmif1Yvmr22shfXHteGmLwTGluNaxs/PVq/KASFnRrGVqOlgXB/1re/FN9jq7GeC453774iFSEj+da0tgeNrC5wJUz10vncinPnrY+sjCJ7RdjPXW/Ivd0Ql05Flz5VpzPh+6/Xn3wRoo8cl0wDmRalgqJR9NGvqtNggu2veaRwDg2dwjjSmJkRHC3+VITr3pj70rQAQ3Acl3Zy7HdrfwTnje94rqjoWCgqRhxwHHtFyDZsS8Hy3z461Sni2ubazpNzxr7YD2gbda2BaTt5vuuleN+RGd4FYvImekOlMM/9VIyLyIXowcmkUaT3LDTEFZyogRWtZxit+WwuMBi9jv5j1epcEVY0Lj6P/+41+iOYUXDM7JPvcot96mIxeRMUXC9EeiRGudWQVqNi1KDn60HhHikoeqcVewX7EB0tQj1JMXkz9KyXLjAQTFWOTkWYGqygGB9jb24RvtRi8uZoZH1U3Aq2S/voKLa+SnfNI4iHwCJ8qcXkveFRBNNFppkUEPhzX81iasp26cE6z9p4rS/EHPmt5UNlEb7UYvKFoIh6UGiMjKtgt0bTx1yASL9qsQhfGjH5wjAi1EWWvWAllMWdtK/HhFVK7p1ZoAJ/fgrfS4fE5AvHimn6qRXB6Mio2H+oLD1SMfmgsErKdI1R8tLfEUqPQExKmhOTkubEpKQ5MSlpTkxKmhOTkubEpKQ5MSlpTkxKmhOTkubEpKQ5MSlpTkxKmhOTkubEpKQ5MSlpTkxKmhOTkubEpKQ5MSlpTkxKmhOTkubEpKQ5MSlpTkxKmhOTkubEpKQ5MSlpTkxKmhOTkubEpKQ5MSlpTkxKmhOTkubEpKQ5MSlpTkxKmhOTkubEpKQ5MSlpTkxKmhOTkubEpKQ5MSlpTkxKmhOTkubEpKQ5MSlpTkxKmhOTkubEpKQ5MSlpTkxKmhOTkubEpKQ5MSlpTkxKmhOTkubEpKQ5MSlpTkxKmhOTkubEpKQ5MSlpTkxKmhOTkubEpKQ5MSlpTkxKmhOTkubEpKQ5MSlpTkxKmhOTkubEpKQ5MSlpTkxKmhOTkubEpKQ5MSlpTkxKmhOTkubEpKQ5MSlpTkxKmhOTkubEpKQ5MSlpTkxKGvGf038BCWLDGgFJz8cAAAAASUVORK5CYII=;" vertex="1" parent="1">
          <mxGeometry x="-245" y="307.5" width="105" height="105" as="geometry" />
        </mxCell>
        <mxCell id="deXuY3BzBvGcL0YWFa3F-18" style="edgeStyle=orthogonalEdgeStyle;rounded=0;orthogonalLoop=1;jettySize=auto;html=1;" edge="1" parent="1" source="deXuY3BzBvGcL0YWFa3F-14" target="deXuY3BzBvGcL0YWFa3F-6">
          <mxGeometry relative="1" as="geometry">
            <mxPoint x="-495" y="138.49999999999994" as="targetPoint" />
            <Array as="points">
              <mxPoint x="-425" y="147.5" />
              <mxPoint x="-425" y="147.5" />
            </Array>
          </mxGeometry>
        </mxCell>
        <mxCell id="deXuY3BzBvGcL0YWFa3F-14" value="" style="sketch=0;points=[[0,0,0],[0.25,0,0],[0.5,0,0],[0.75,0,0],[1,0,0],[0,1,0],[0.25,1,0],[0.5,1,0],[0.75,1,0],[1,1,0],[0,0.25,0],[0,0.5,0],[0,0.75,0],[1,0.25,0],[1,0.5,0],[1,0.75,0]];outlineConnect=0;fontColor=#232F3E;fillColor=#01A88D;strokeColor=#ffffff;dashed=0;verticalLabelPosition=bottom;verticalAlign=top;align=center;html=1;fontSize=12;fontStyle=0;aspect=fixed;shape=mxgraph.aws4.resourceIcon;resIcon=mxgraph.aws4.desktop_and_app_streaming;" vertex="1" parent="1">
          <mxGeometry x="-215" y="107.5" width="78" height="78" as="geometry" />
        </mxCell>
        <mxCell id="deXuY3BzBvGcL0YWFa3F-20" value="Embedding API" style="text;html=1;align=center;verticalAlign=middle;whiteSpace=wrap;rounded=0;" vertex="1" parent="1">
          <mxGeometry x="-596.9599999999999" y="97.5" width="88.91" height="30" as="geometry" />
        </mxCell>
        <mxCell id="deXuY3BzBvGcL0YWFa3F-21" value="embedding-ada-002" style="text;html=1;align=center;verticalAlign=middle;whiteSpace=wrap;rounded=0;" vertex="1" parent="1">
          <mxGeometry x="-612.5" y="155.5" width="120" height="30" as="geometry" />
        </mxCell>
        <mxCell id="deXuY3BzBvGcL0YWFa3F-22" value="" style="shape=datastore;whiteSpace=wrap;html=1;" vertex="1" parent="1">
          <mxGeometry x="-583.91" y="347.5" width="60" height="60" as="geometry" />
        </mxCell>
        <mxCell id="deXuY3BzBvGcL0YWFa3F-23" value="Vector Database" style="text;html=1;align=center;verticalAlign=middle;whiteSpace=wrap;rounded=0;" vertex="1" parent="1">
          <mxGeometry x="-613.91" y="412.5" width="120" height="30" as="geometry" />
        </mxCell>
        <mxCell id="deXuY3BzBvGcL0YWFa3F-24" value="Chat API" style="text;html=1;align=center;verticalAlign=middle;whiteSpace=wrap;rounded=0;" vertex="1" parent="1">
          <mxGeometry x="-232.5" y="317.5" width="80" height="30" as="geometry" />
        </mxCell>
        <mxCell id="deXuY3BzBvGcL0YWFa3F-25" value="Model GPT-4 Turbo" style="text;html=1;align=center;verticalAlign=middle;whiteSpace=wrap;rounded=0;" vertex="1" parent="1">
          <mxGeometry x="-245" y="377.5" width="100" height="30" as="geometry" />
        </mxCell>
        <mxCell id="deXuY3BzBvGcL0YWFa3F-26" value="&lt;font style=&quot;font-size: 10px;&quot;&gt;Texto do PDF tratado e enviado para API retornar dado vetorizado&lt;/font&gt;" style="text;html=1;align=center;verticalAlign=middle;whiteSpace=wrap;rounded=0;" vertex="1" parent="1">
          <mxGeometry x="-820" y="50" width="140" height="30" as="geometry" />
        </mxCell>
        <mxCell id="deXuY3BzBvGcL0YWFa3F-27" value="&lt;font style=&quot;font-size: 10px;&quot;&gt;Dado vetorizado a sendo armazenado em baco de dados de vetores&lt;/font&gt;" style="text;html=1;align=center;verticalAlign=middle;whiteSpace=wrap;rounded=0;" vertex="1" parent="1">
          <mxGeometry x="-745" y="240" width="140" height="30" as="geometry" />
        </mxCell>
        <mxCell id="deXuY3BzBvGcL0YWFa3F-28" value="&lt;font style=&quot;font-size: 10px;&quot;&gt;Pergunta realizada na aplicaÃ§Ã£o Vetorizada para query em banco de dados&lt;/font&gt;" style="text;html=1;align=center;verticalAlign=middle;whiteSpace=wrap;rounded=0;" vertex="1" parent="1">
          <mxGeometry x="-493.91" y="240" width="153.91" height="30" as="geometry" />
        </mxCell>
        <mxCell id="deXuY3BzBvGcL0YWFa3F-29" value="&lt;font style=&quot;font-size: 10px;&quot;&gt;Resultado selecionado com maior similaridade entre os cossenos dos vetores&lt;/font&gt;" style="text;html=1;align=center;verticalAlign=middle;whiteSpace=wrap;rounded=0;" vertex="1" parent="1">
          <mxGeometry x="-470" y="345" width="153.91" height="30" as="geometry" />
        </mxCell>
        <mxCell id="deXuY3BzBvGcL0YWFa3F-30" value="&lt;font style=&quot;font-size: 10px;&quot;&gt;Camada de prompt engineering contendo resposta final refinada para chat&lt;/font&gt;" style="text;html=1;align=center;verticalAlign=middle;whiteSpace=wrap;rounded=0;" vertex="1" parent="1">
          <mxGeometry x="-170" y="240" width="153.91" height="30" as="geometry" />
        </mxCell>
        <mxCell id="deXuY3BzBvGcL0YWFa3F-31" value="&lt;font style=&quot;font-size: 10px;&quot;&gt;AplicaÃ§Ã£o desenhada em python com framework Flask, hospedada no pythonanywhere e recursos de JS para chat&lt;/font&gt;" style="text;html=1;align=center;verticalAlign=middle;whiteSpace=wrap;rounded=0;" vertex="1" parent="1">
          <mxGeometry x="-297.46999999999997" y="60" width="242.95" height="30" as="geometry" />
        </mxCell>
      </root>
    </mxGraphModel>
  </diagram>
</mxfile>
